<?xml version="1.0" encoding="utf-8"?>
<!-- Generator: Adobe Illustrator 23.0.3, SVG Export Plug-In . SVG Version: 6.00 Build 0)  -->
<svg version="1.1" id="Capa_1" xmlns="http://www.w3.org/2000/svg" xmlns:xlink="http://www.w3.org/1999/xlink" x="0px" y="0px"
	 viewBox="0 0 512 512" style="enable-background:new 0 0 512 512;" xml:space="preserve">
<path d="M434.9,77.1C387.1,29.3,323.6,3,256,3S124.9,29.3,77.1,77.1C29.3,124.9,3,188.4,3,256s26.3,131.1,74.1,178.9
	C124.9,482.7,188.4,509,256,509s131.1-26.3,178.9-74.1C482.7,387.1,509,323.6,509,256S482.7,124.9,434.9,77.1z M256,485
	C129.7,485,27,382.3,27,256S129.7,27,256,27s229,102.7,229,229S382.3,485,256,485z"/>
<polygon points="244,251 243.1,251.9 153.5,341.6 170.4,358.5 268,261 268,123 244,123 244,249.8 "/>
</svg>
