<svg id="trade-in" xmlns="http://www.w3.org/2000/svg" viewBox="0 0 512 512">
  <title>color</title>
  <g>
    <path d="M464,91a6,6,0,0,0-5-4,6,6,0,0,0-6,2c-8,11-18,14-29,18s-19,7-29,14-21,25-18,39h0a197,197,0,0,0-20-25c-33-35-79-55-127-57h-6c-53,0-104,24-139,65S33,240,41,292l2,13c13,57,46,101,91,120a87,87,0,0,0,33,7c27,0,51-15,65-40a86,86,0,0,0,10-30c1-6,0-12,0-18s-1-11,0-17,11-21,24-21l11,2-12,23c-8,15-13,28-15,38s-6,22,5,29a16,16,0,0,0,12,2c4-1,16-3,52-43l30-37c27-9,48-32,54-58a83,83,0,0,0,2-21l28-46h1c13-4,24-14,31-28S475,119,464,91Z" fill="none" stroke="#002c5f" stroke-miterlimit="10" stroke-width="21.45"/>
    <path d="M317,190a26,26,0,1,1,3-19A26,26,0,0,1,317,190Z" fill="none" stroke="#002c5f" stroke-miterlimit="10" stroke-width="21.45"/>
    <path d="M350,236c13-19,27-38,40-55l7,6,13,7c-11,19-23,38-37,59-24,35-48,67-69,91-12,13-22,24-30,30,3-10,9-23,17-39C305,306,326,271,350,236Z" fill="#002c5f"/>
    <path d="M122,236a26,26,0,1,1,22-12A26,26,0,0,1,122,236Z" fill="none" stroke="#002c5f" stroke-miterlimit="10" stroke-width="21.45"/>
    <path d="M95,293a26,26,0,1,1-3,19A26,26,0,0,1,95,293Z" fill="none" stroke="#002c5f" stroke-miterlimit="10" stroke-width="21.45"/>
    <path d="M177,140a26,26,0,1,1-3,19A26,26,0,0,1,177,140Z" fill="none" stroke="#002c5f" stroke-miterlimit="10" stroke-width="21.45"/>
  </g>
</svg>
