<svg id="trade-in" xmlns="http://www.w3.org/2000/svg" viewBox="0 0 512 512">
  <title>credit</title>
  <g>
    <path d="M452,228H442V157c0-17-13-30-29-30h-8V81c0-17-12-30-27-30h-2L78,128h0c-15,1-27,14-27,30V431c0,17,13,30,29,30H413a29,29,0,0,0,30-30V359h10c5,0,9-4,9-9V237A9,9,0,0,0,452,228ZM380,67c4,1,9,6,9,13v47H148L380,67Zm45,364c0,7-5,13-12,13H80c-7,0-12-6-12-13V157c0-7,5-13,12-13H412c7,0,12,6,12,13v71H338c-37,0-65,29-65,65a65,65,0,0,0,65,65h87v72Zm18-89H338c-26,0-48-22-48-48s22-48,48-48H444Z" fill="#002c5f" stroke="#002c5f" stroke-miterlimit="10" stroke-width="4.19"/>
    <path d="M328,295a9,9,0,0,0,9,9h8a9,9,0,0,0,0-17h-8C332,287,328,290,328,295Z" fill="#002c5f" stroke="#002c5f" stroke-miterlimit="10" stroke-width="4.19"/>
  </g>
</svg>
