<svg id="trade-in" xmlns="http://www.w3.org/2000/svg" viewBox="0 0 512 512">
  <title>present</title>
  <path d="M439,164H357l15-12a55,55,0,0,0,0-77c-21-21-56-21-77,0s-41,58-37,89h-2c4-31-26-77-37-89s-56-21-77,0a55,55,0,0,0,0,77l15,12H73a26,26,0,0,0-26,26v65a13,13,0,0,0,13,13H73V426a26,26,0,0,0,26,26H413a26,26,0,0,0,26-26V269h13a13,13,0,0,0,13-13V190A26,26,0,0,0,439,164ZM155,89a32,32,0,0,1,46,0c20,20,40,73,34,80h-6c-21,0-61-22-74-35A33,33,0,0,1,155,89Zm86,346H91V266H241Zm2-191H63V187H243ZM311,89c12-12,33-12,46,0a33,33,0,0,1,0,46c-13,13-53,35-73,35h-6C271,162,291,110,311,89ZM421,435H271V266H421Zm28-191H269V187H449Z" fill="#e63312"/>
</svg>
