<svg width="30" height="30" xmlns="http://www.w3.org/2000/svg" viewBox="0 0 30 30" class="KONGET-CL-108404047 KONGET-CL-0-3"><path d="M8.7276717 21.3828072s12.2561792 11.547808 19.1635786 7.9074246c0 0 1.9089652-1.6142692 2.0938559-3.200179.1848908-1.5859098-1.4011196-2.6496427-2.0140016-3.011086-1.4673233-.8693176-2.9765701-1.6793215-4.4738387-2.5041537-.4731369-.2613514-.986201-.5560667-1.5451813-.4114894-.32341.0852636-.6568019.1779414-.9522629.3225187-1.0540771.5115814-1.9185002.9935058-3.0604171 1.4735768 0 0-1.165543-.3517777-5.5136112-4.438868-4.6195729-4.3428809-3.9952704-5.9576468-3.9952704-5.9576468.6009038-.7914683 1.1479059-1.6200077 1.6030756-2.4930324.1956431-.3762718.4651515-.7395687.5789439-1.1492045.1157888-.4114894-.1217779-.7062047-.3214137-1.0676481-.4431915-.8081502-.9163284-1.6014721-1.4074325-2.3855261-.8464559-1.3549492-1.710879-2.7673586-2.7909088-3.9777305-.1137924-.1260418-.3793081-.5041671-.5969111-.4893387C3.0942575.1505621.728573 2.3803896.728573 2.3803896c-3.717219 6.3095035 7.9990987 19.0024176 7.9990987 19.0024176z" fill="currentColor" fill-rule="evenodd"></path></svg>