<?xml version="1.0" encoding="utf-8"?>
<!-- Generator: Adobe Illustrator 24.2.0, SVG Export Plug-In . SVG Version: 6.00 Build 0)  -->
<svg version="1.1" id="Layer_1" xmlns="http://www.w3.org/2000/svg" xmlns:xlink="http://www.w3.org/1999/xlink" x="0px" y="0px"
	 viewBox="0 0 43.9 42.6" style="enable-background:new 0 0 43.9 42.6;" xml:space="preserve">
<style type="text/css">
	.st0{fill:none;stroke:#000000;stroke-width:3;stroke-miterlimit:10;}
	.st1{fill:none;stroke:#000000;stroke-width:2;stroke-miterlimit:10;}
</style>
<g>
	<path class="st0" d="M38,19.8c0,3-0.7,5.9-2,8.4c2.5,4.4,5.5,12.4,5.5,12.4s-9-2-15.2-3.7c-2,0.8-4.2,1.2-6.5,1.2
		C9.7,38,1.5,29.8,1.5,19.8S9.7,1.5,19.8,1.5S38,9.7,38,19.8z"/>
	<g>
		<line class="st1" x1="11.5" y1="13.5" x2="18.5" y2="13.5"/>
		<line class="st1" x1="21.5" y1="13.5" x2="24.5" y2="13.5"/>
	</g>
	<g>
		<line class="st1" x1="11.5" y1="19.5" x2="22.5" y2="19.5"/>
		<line class="st1" x1="28.5" y1="19.5" x2="24.5" y2="19.5"/>
	</g>
	<g>
		<line class="st1" x1="11.5" y1="25.5" x2="19.5" y2="25.5"/>
		<line class="st1" x1="22.5" y1="25.5" x2="25.5" y2="25.5"/>
	</g>
</g>
</svg>
