<?xml version="1.0" encoding="utf-8"?>
<!-- Generator: Adobe Illustrator 23.0.3, SVG Export Plug-In . SVG Version: 6.00 Build 0)  -->
<svg version="1.1" id="Layer_1" xmlns="http://www.w3.org/2000/svg" xmlns:xlink="http://www.w3.org/1999/xlink" x="0px" y="0px"
	 viewBox="0 0 457.1 457.1" style="enable-background:new 0 0 457.1 457.1;" xml:space="preserve">
<path d="M444.1,348.2c-0.4-1.9-0.8-3.8-1.3-5.6c-7-28.3-31.6-47.4-61.1-47.6c-8-0.1-16.6-0.1-27-0.1c-6.6,0-13.1,0-19.7,0
	c-6.6,0-13.1,0-19.7,0l-0.4,0h-0.4c-19,0-37.9,0-56.9,0c-48.1,0-97.7,0-146.6,0c-19.9,0-35.8-11.6-40.5-29.6
	c-3.2-12.2-0.7-24.8,6.9-34.8c7.5-9.8,18.9-15.5,31.3-15.7c9.7-0.1,20.2-0.2,33.1-0.2c7.4,0,14.7,0,22.1,0c7.3,0,14.7,0,22,0h0.4
	l38.7,0l59.8,0l40.3,0v-96.4c0-3.3,2.7-6,6-6h108.3c-8.7-13-17.6-26.4-26.3-39.7c-1.8-2.7-2.3-7.5-0.2-10.7
	c8.8-13.4,17.8-26.9,26.6-40H303v79.3v85.3c0,3.3-2.7,6-6,6h-4.9H291l-34.4,0l-34.4,0c-32.8,0-71.5,0-110,0c-3.7,0-8.1,0.1-12.2,0.7
	c-15.6,2.5-29.7,10.6-39.4,22.9c-9.8,12.3-14.5,27.6-13.3,43.2c1.2,15.8,8.2,30.3,19.7,41c11.5,10.7,26.6,16.6,42.5,16.7
	c13.9,0,28.9,0.1,47.3,0.1c11,0,21.9,0,32.9,0c11,0,21.9,0,32.9,0h0.8l1,0h1c14.6,0,29.2,0,43.8,0c14.6,0,29.2,0,43.8,0
	c27.3,0,49.4,0,69.6,0.1c20.2,0,37.6,15.5,39.6,35.2c2.2,21.3-11.1,39.8-31.7,43.9c-4.2,0.8-8.4,1-12.2,1c-1,0-1.9,0-2.9,0
	c-0.9,0-1.8,0-2.7,0h-0.1c-90.7,0-182.9,0-272.1,0l-16.3,0C79.1,379.8,62.8,367,43.7,367c-23.3,0-42.3,19-42.3,42.3
	s19,42.3,42.3,42.3c19.8,0,36.5-13.7,41.1-32.1H389c1.6-0.4,3.2-0.8,4.7-1.1c3.7-0.8,7.2-1.6,10.3-2.9c23-9.3,36-25.6,40-50
	c0.1-0.8,0.4-1.5,0.6-2.1v-13.3C444.4,349.5,444.3,348.9,444.1,348.2z M325.6,50.4c0-3.3,2.7-6,6-6h55c2.2,0,4.2,1.2,5.3,3.2
	c1,1.9,0.9,4.3-0.3,6.1l-2.4,3.7c-1.7,2.6-3.3,5-4.9,7.4c-0.5,0.8-1.1,1.7-1.5,2.4c0.4,0.7,1,1.6,1.6,2.5c1.9,2.8,3.9,5.9,6.4,9.7
	c0.7,1,0.9,1.9,1,2.4c0,0.1,0,0.2,0.1,0.3c0.5,1.8,0.2,3.8-1,5.3c-1.1,1.5-2.9,2.4-4.8,2.4h-54.5c-3.3,0-6-2.7-6-6V50.4z
	 M43.7,433.7c-13.4,0-24.3-10.9-24.3-24.3c0-13.4,10.9-24.3,24.3-24.3S68,395.9,68,409.3C68,422.8,57.1,433.7,43.7,433.7z"/>
</svg>
