<svg id="trade-in" xmlns="http://www.w3.org/2000/svg" viewBox="0 0 512 512">
  <title>percent</title>
  <g>
    <path d="M458,262a14,14,0,0,1,0-12l17-36a40,40,0,0,0-17-54l-35-19a14,14,0,0,1-7-10l-7-39a41,41,0,0,0-46-33l-39,6a13,13,0,0,1-11-4L284,34a41,41,0,0,0-57,0L199,62a13,13,0,0,1-11,4l-39-6a40,40,0,0,0-46,33l-7,39a14,14,0,0,1-7,10L54,161a40,40,0,0,0-17,54l17,36a14,14,0,0,1,0,12L36,298a40,40,0,0,0,17,54l35,19a14,14,0,0,1,7,10l7,39a40,40,0,0,0,40,34h6l39-6a13,13,0,0,1,11,4l29,28a40,40,0,0,0,56,0l29-28a13,13,0,0,1,11-4l39,6a40,40,0,0,0,46-33l7-39a14,14,0,0,1,7-10l35-19a40,40,0,0,0,17-54Zm-13,66-35,19a41,41,0,0,0-21,29l-7,39a14,14,0,0,1-15,11l-39-6a41,41,0,0,0-34,11l-29,28a14,14,0,0,1-19,0l-29-28a40,40,0,0,0-28-11h-6l-39,6a14,14,0,0,1-15-11l-7-39a40,40,0,0,0-21-29L66,328a14,14,0,0,1-6-18l17-36a40,40,0,0,0,0-36L61,202a14,14,0,0,1,6-18l35-18a41,41,0,0,0,21-29l7-39a14,14,0,0,1,15-11l39,6a41,41,0,0,0,34-11l29-28a14,14,0,0,1,19,0l29,28a40,40,0,0,0,34,11l39-6a14,14,0,0,1,15,11l7,39a40,40,0,0,0,21,29l35,19a14,14,0,0,1,6,18l-17,36a40,40,0,0,0,0,36l17,36A14,14,0,0,1,446,328Z" fill="#002c5f"/>
    <path d="M354,158a13,13,0,0,0-19,0L158,335a13,13,0,0,0,9,23,13,13,0,0,0,9-4L354,177A13,13,0,0,0,354,158Z" fill="#002c5f"/>
    <path d="M202,135a49,49,0,1,0,49,49A49,49,0,0,0,202,135Zm0,72a22,22,0,1,1,22-22A22,22,0,0,1,202,207Z" fill="#002c5f"/>
    <path d="M310,278a49,49,0,1,0,49,49A49,49,0,0,0,310,278Zm0,72a22,22,0,1,1,22-22A22,22,0,0,1,310,350Z" fill="#002c5f"/>
  </g>
</svg>
