<?xml version="1.0" encoding="utf-8"?>
<!-- Generator: Adobe Illustrator 23.0.3, SVG Export Plug-In . SVG Version: 6.00 Build 0)  -->
<svg version="1.1" id="Layer_1" xmlns="http://www.w3.org/2000/svg" xmlns:xlink="http://www.w3.org/1999/xlink" x="0px" y="0px"
	 viewBox="0 0 512 512" style="enable-background:new 0 0 512 512;" xml:space="preserve">
<g id="Page-1">
	<g transform="translate(-1)">
		<path id="Shape" d="M168.3,227.2c3.4-5.4,4.8-11.8,3.8-18.1L153.5,91.5c-2-12.7-12.9-22.1-25.8-22H46.2
			c-11.4,0-21.5,7.4-24.9,18.2c-32.6,99.5,4.1,221.5,93.4,310.8c67.7,67.7,154.1,105.1,235.2,105.1c25.6,0.1,51.1-3.9,75.5-11.7
			c10.9-3.5,18.2-13.5,18.2-24.9v-81.6c0.1-12.9-9.3-23.8-22-25.8L304,340.9c-6.3-1-12.7,0.4-18.1,3.8l-45.3,28.9
			c-3.9,2.4-8.8,2.5-12.7,0.1c-36.5-21.6-66.9-52.1-88.5-88.5c-2.3-3.9-2.3-8.8,0.1-12.7L168.3,227.2z M124.3,294
			c23.1,39,55.7,71.6,94.7,94.7c9.5,5.7,21.4,5.5,30.8-0.5l45.3-28.9c1.8-1.1,4-1.6,6.1-1.3l117.6,18.6c4.3,0.7,7.4,4.4,7.4,8.7
			v81.6c0,3.9-2.6,7.3-6.3,8.5c-93.3,30.5-208.4-4.5-293.1-89.2S7.2,186.4,37.7,93.1c1.2-3.7,4.6-6.2,8.5-6.3h81.6
			c4.3,0,8,3.1,8.7,7.4L155,211.7c0.3,2.1-0.1,4.3-1.3,6.1l-28.9,45.3C118.9,272.5,118.7,284.4,124.3,294L124.3,294z"/>
	</g>
</g>
<circle cx="269.7" cy="237.7" r="20.4"/>
<path d="M477.7,230.7h22.6c-0.9-28.7-7-56.5-18.1-82.8c-11.6-27.5-28.3-52.1-49.5-73.3c-21.2-21.2-45.8-37.8-73.3-49.5
	C333.2,14.1,305.4,8,276.7,7.1v22.6C385.8,33.4,474,121.6,477.7,230.7z"/>
<path d="M377.1,230.7h22.6c-1.7-32.1-15.1-62.1-38-85c-22.9-22.9-52.9-36.2-85-38v22.6C330.5,133.8,373.6,177,377.1,230.7z"/>
</svg>
