<svg id="trade-in" xmlns="http://www.w3.org/2000/svg" viewBox="0 0 512 512">
  <title>quantity</title>
  <path d="M475,223l-39-18-35-55a55,55,0,0,0-46-26H207a55,55,0,0,0-44,22l-45,59L44,225a44,44,0,0,0-32,42v29c0,24,19,44,43,44h6a56,56,0,0,0,107,0H337a56,56,0,0,0,108,0h12c24,0,43-20,43-44V263A44,44,0,0,0,475,223ZM115,361a36,36,0,1,1,35-35A36,36,0,0,1,115,361Zm275,0a36,36,0,1,1,36-35A36,36,0,0,1,391,361Zm66-41H446a56,56,0,0,0-110,0H171a56,56,0,0,0-110,0H55c-13,0-23-11-23-24V267a24,24,0,0,1,17-23l78-21,5-4,47-61a35,35,0,0,1,28-14H354a34,34,0,0,1,30,16l36,58,4,4,42,19a24,24,0,0,1,14,22v32h0C480,309,470,320,457,320Z" fill="#002c5f"/>
</svg>
