<svg id="trade-in" xmlns="http://www.w3.org/2000/svg" viewBox="0 0 512 512">
  <title>sheild</title>
  <g id="surface1">
    <path d="M446,154h0c0-4,0-9,0-14a47,47,0,0,0-45-46c-51-3-91-20-125-53h0a29,29,0,0,0-39,0h0c-34,33-74,50-125,53a47,47,0,0,0-45,46c0,5,0,10,0,14h0c-1,52-2,118,20,177a224,224,0,0,0,54,84c27,26,63,48,106,63h21c43-15,79-36,106-63s42-52,54-84C448,272,447,206,446,154ZM402,322c-23,62-70,105-144,131h-4c-74-26-121-69-144-131S91,207,92,155h0c0-5,0-9,0-14a21,21,0,0,1,20-21c29-2,55-7,78-17s44-24,64-43h3c19,19,40,33,64,43s49,16,78,17a21,21,0,0,1,20,21c0,5,0,10,0,14C421,207,422,267,402,322Z" fill="#002c5f"/>
    <path d="M256,145A111,111,0,1,0,367,256,112,112,0,0,0,256,145Zm0,197a85,85,0,1,1,85-85A85,85,0,0,1,256,341Z" fill="#002c5f"/>
    <path d="M288,221l-52,52-14-14a13,13,0,1,0-19,19l23,23a13,13,0,0,0,19,0l61-61a13,13,0,0,0-19-19Z" fill="#002c5f"/>
  </g>
</svg>
