<?xml version="1.0" encoding="utf-8"?>
<!-- Generator: Adobe Illustrator 21.1.0, SVG Export Plug-In . SVG Version: 6.00 Build 0)  -->
<svg version="1.2" baseProfile="tiny" id="trade-in"
	 xmlns="http://www.w3.org/2000/svg" xmlns:xlink="http://www.w3.org/1999/xlink" x="0px" y="0px" viewBox="0 0 512 512"
	 xml:space="preserve">
<path fill="#002C5F" d="M453,139l-48,62l-79,22c-20.1,5.8-33.9,24.1-34,45v30c0,26,20,47,46,47h7c7.3,31.8,39,51.6,70.7,44.3
	c22-5.1,39.2-22.3,44.3-44.3h42v-21h-41c0-32.6-26.4-59-59-59c-32.6,0-59,26.4-59,59h-5c-14,0-25-12-25-26v-30
	c0-11.1,7.3-20.9,18-24l83-23l6-4l50-65c7.3-9,18.4-14.2,30-14h2v-22h-2C481.6,115.9,464.2,124.4,453,139z M402,292
	c21,0,38,17,38,38s-17,38-38,38s-38-17-38-38S381,292,402,292z"/>
<path fill="#002C5F" d="M116.7,389.3c22-5.1,39.2-22.3,44.3-44.3h13c26,0,46-21,46-47v-34c0.4-18.5-10.2-35.4-27-43l-42-19l-37-59
	c-10.8-17.1-29.8-27.3-50-27H10v22h54c12.9-0.3,25,6.1,32,17l39,62l5,4l45,20c9.1,4,15,13,15,23v35c-2,13-12,25-26,25h-12
	c0-32.6-26.4-59-59-59s-59,26.4-59,59H10v21h36C53.3,376.8,85,396.6,116.7,389.3z M104,292c21,0,38,17,38,38c0,21-17,38-38,38
	c-0.3,0-0.7,0-1,0h1c-21,0-38-17-38-38S83,292,104,292z"/>
<path fill="#002C5F" d="M365.5,399.5c-0.2,0.2-0.3,0.3-0.5,0.5c-50.2,60-139.4,68.4-200,19h4c6.1,0,11-4.9,11-11s-4.9-11-11-11h-30
	c-6-0.6-11.4,3.9-12,9.9c0,0,0,0.1,0,0.1v31c0,6.1,4.9,11,11,11s11-4.9,11-11v-4c22.3,19,49.2,31.8,78,37l28,2
	c49,0,95.4-21.6,127-59c3.7-4.5,3.2-11-1-15C376.6,394.8,369.6,395.1,365.5,399.5z"/>
<path fill="#002C5F" d="M347,93h-4c-6.1,0-11,4.9-11,11s4.9,11,11,11h30c6,0.6,11.4-3.9,12-9.9c0,0,0-0.1,0-0.1V73
	c0-6.1-4.9-11-11-11s-11,4.9-11,11v4c-22.3-19-49.2-31.8-78-37l-28-2c-49.3-0.3-96.2,21.3-128,59c-3.9,4.7-3.3,11.6,1.4,15.5
	c0.2,0.2,0.4,0.3,0.6,0.5c4.4,4.2,11.4,3.9,15.5-0.5c0.2-0.2,0.3-0.3,0.5-0.5C197.2,52,286.4,43.6,347,93z"/>
</svg>
