<svg id="trade-in" xmlns="http://www.w3.org/2000/svg" viewBox="0 0 512 512">
  <title>vigoda</title>
  <g>
    <path d="M485,280a43,43,0,0,0-59,4l-42,45a43,43,0,0,0-37-30,167,167,0,0,0,21-18c30-30,47-69,47-111,0-87-71-158-158-158S99,83,99,170a156,156,0,0,0,40,105,98,98,0,0,0-20,13,43,43,0,0,0-35-18H26a14,14,0,0,0-14,14V486a14,14,0,0,0,14,14H84a43,43,0,0,0,41-29H343a100,100,0,0,0,80-40l69-92A43,43,0,0,0,485,280ZM99,457a14,14,0,0,1-14,14H41V299H84a14,14,0,0,1,14,14Zm29-287c0-71,58-130,129-130A130,130,0,0,1,386,170c0,68-54,124-122,128l-7-3-7-6a100,100,0,0,0-81-24A128,128,0,0,1,127,170ZM469,322l-69,92a72,72,0,0,1-57,29H127V320l10-9a72,72,0,0,1,94,0c5,4,18,17,24,17h87a14,14,0,0,1,0,29H240a14,14,0,1,0,0,29H352a43,43,0,0,0,31-14l63-68a14,14,0,0,1,19-2A14,14,0,0,1,469,322Z" fill="#002c5f"/>
    <path d="M256,156a14,14,0,0,1-5-28c7-3,16,1,23,10a14,14,0,1,0,22-18c-8-9-17-16-26-19V84a14,14,0,0,0-29,0v17h0a43,43,0,0,0,15,83,14,14,0,0,1,6,27c-6,3-14,0-21-6a14,14,0,0,0-20,20,56,56,0,0,0,21,13v17a14,14,0,1,0,29,0V239h2a43,43,0,0,0-17-82Z" fill="#002c5f"/>
  </g>
</svg>
