<svg id="Layer_1" data-name="Layer 1" xmlns="http://www.w3.org/2000/svg" xmlns:xlink="http://www.w3.org/1999/xlink" viewBox="0 0 401.12 391.14"><defs><style>.cls-1{fill:url(#Новый_образец_градиента_165);}.cls-2{fill:url(#Новый_образец_градиента_165-2);}.cls-3{fill:url(#Новый_образец_градиента_165-3);}.cls-4{fill:url(#Новый_образец_градиента_165-4);}.cls-5{fill:url(#radial-gradient);}.cls-6{fill:url(#Новый_образец_градиента_165-5);}.cls-7{fill:url(#Новый_образец_градиента_165-6);}.cls-8{fill:url(#Новый_образец_градиента_165-7);}.cls-9{fill:url(#Новый_образец_градиента_165-8);}.cls-10{fill:url(#Новый_образец_градиента_165-9);}.cls-11{fill:url(#Новый_образец_градиента_165-10);}.cls-12{fill:url(#Новый_образец_градиента_165-11);}.cls-13{fill:url(#Новый_образец_градиента_165-12);}.cls-14{fill:url(#Новый_образец_градиента_165-13);}.cls-15{fill:url(#Новый_образец_градиента_165-14);}.cls-16{fill:url(#Новый_образец_градиента_165-15);}.cls-17{fill:url(#Новый_образец_градиента_165-16);}.cls-18{fill:url(#Новый_образец_градиента_165-17);}.cls-19{fill:url(#Новый_образец_градиента_165-18);}.cls-20{fill:url(#Новый_образец_градиента_165-19);}.cls-21{fill:url(#Новый_образец_градиента_165-20);}.cls-22{fill:url(#Новый_образец_градиента_165-21);}.cls-23{fill:url(#Новый_образец_градиента_165-22);}.cls-24{fill:url(#Новый_образец_градиента_165-23);}.cls-25{fill:url(#Новый_образец_градиента_165-24);}.cls-26{fill:url(#Новый_образец_градиента_165-25);}.cls-27{fill:url(#Новый_образец_градиента_165-26);}.cls-28{fill:url(#Новый_образец_градиента_165-27);}.cls-29{fill:url(#Новый_образец_градиента_165-28);}.cls-30{fill:url(#Новый_образец_градиента_165-29);}.cls-31{fill:url(#Новый_образец_градиента_165-30);}.cls-32{fill:url(#Новый_образец_градиента_165-31);}.cls-33{fill:url(#Новый_образец_градиента_165-32);}.cls-34{fill:url(#Новый_образец_градиента_165-33);}.cls-35{fill:url(#Новый_образец_градиента_165-34);}.cls-36{fill:url(#Новый_образец_градиента_165-35);}.cls-37{fill:url(#Новый_образец_градиента_165-36);}.cls-38{fill:url(#Новый_образец_градиента_165-37);}.cls-39{fill:url(#Новый_образец_градиента_165-38);}.cls-40{fill:url(#Новый_образец_градиента_165-39);}.cls-41{fill:#ffda73;}.cls-42{fill:#fff;}</style><linearGradient id="Новый_образец_градиента_165" x1="306.79" y1="-47.65" x2="99.32" y2="427.36" gradientUnits="userSpaceOnUse"><stop offset="0" stop-color="#ffd744"/><stop offset="0.07" stop-color="#a6761a"/><stop offset="0.19" stop-color="#ffd744"/><stop offset="0.4" stop-color="#ffd744"/><stop offset="0.56" stop-color="#fcf4ae"/><stop offset="0.68" stop-color="#ffd744"/><stop offset="0.75" stop-color="#a6761a"/><stop offset="0.88" stop-color="#ffd744"/><stop offset="0.97" stop-color="#fcf4ae"/><stop offset="1" stop-color="#ffd744"/></linearGradient><linearGradient id="Новый_образец_градиента_165-2" x1="380.6" y1="-122.96" x2="95.12" y2="382.12" xlink:href="#Новый_образец_градиента_165"/><linearGradient id="Новый_образец_градиента_165-3" x1="287.04" y1="5.81" x2="129.46" y2="351.58" xlink:href="#Новый_образец_градиента_165"/><linearGradient id="Новый_образец_градиента_165-4" x1="53.53" y1="519.27" x2="268.65" y2="45.67" gradientTransform="translate(197.03 -84.54) rotate(45)" xlink:href="#Новый_образец_градиента_165"/><radialGradient id="radial-gradient" cx="200.56" cy="195.57" r="146.53" gradientUnits="userSpaceOnUse"><stop offset="0" stop-color="#2668b5"/><stop offset="1" stop-color="#0f1d37"/></radialGradient><linearGradient id="Новый_образец_градиента_165-5" x1="-29.11" y1="114.44" x2="-103.39" y2="362.45" gradientTransform="translate(408.64 42.53) rotate(11.38)" xlink:href="#Новый_образец_градиента_165"/><linearGradient id="Новый_образец_градиента_165-6" x1="-26.93" y1="109.22" x2="-104.63" y2="368.67" gradientTransform="translate(408.64 42.53) rotate(11.38)" xlink:href="#Новый_образец_градиента_165"/><linearGradient id="Новый_образец_градиента_165-7" x1="-24.62" y1="98.85" x2="-107.59" y2="375.85" gradientTransform="translate(408.64 42.53) rotate(11.38)" xlink:href="#Новый_образец_градиента_165"/><linearGradient id="Новый_образец_градиента_165-8" x1="-29.69" y1="105.06" x2="-108.09" y2="366.83" gradientTransform="translate(408.64 42.53) rotate(11.38)" xlink:href="#Новый_образец_градиента_165"/><linearGradient id="Новый_образец_градиента_165-9" x1="-32.84" y1="99.01" x2="-113.04" y2="366.77" gradientTransform="translate(408.64 42.53) rotate(11.38)" xlink:href="#Новый_образец_градиента_165"/><linearGradient id="Новый_образец_градиента_165-10" x1="-40.68" y1="100.06" x2="-118.65" y2="360.37" gradientTransform="translate(408.64 42.53) rotate(11.38)" xlink:href="#Новый_образец_градиента_165"/><linearGradient id="Новый_образец_градиента_165-11" x1="-48.39" y1="94.53" x2="-127.13" y2="357.42" gradientTransform="translate(408.64 42.53) rotate(11.38)" xlink:href="#Новый_образец_градиента_165"/><linearGradient id="Новый_образец_градиента_165-12" x1="-25.91" y1="94.26" x2="-113.27" y2="385.94" gradientTransform="translate(408.64 42.53) rotate(11.38)" xlink:href="#Новый_образец_градиента_165"/><linearGradient id="Новый_образец_градиента_165-13" x1="-8.88" y1="193.84" x2="-66.01" y2="414.93" gradientTransform="translate(466.6 -26.83) rotate(23.31)" xlink:href="#Новый_образец_градиента_165"/><linearGradient id="Новый_образец_градиента_165-14" x1="-6.55" y1="194.44" x2="-63.69" y2="415.53" gradientTransform="translate(466.6 -26.83) rotate(23.31)" xlink:href="#Новый_образец_градиента_165"/><linearGradient id="Новый_образец_градиента_165-15" x1="-5.4" y1="194.74" x2="-62.53" y2="415.83" gradientTransform="translate(466.6 -26.83) rotate(23.31)" xlink:href="#Новый_образец_градиента_165"/><linearGradient id="Новый_образец_градиента_165-16" x1="-6.27" y1="194.52" x2="-63.41" y2="415.61" gradientTransform="translate(466.6 -26.83) rotate(23.31)" xlink:href="#Новый_образец_градиента_165"/><linearGradient id="Новый_образец_градиента_165-17" x1="-8.89" y1="193.84" x2="-66.02" y2="414.93" gradientTransform="translate(466.6 -26.83) rotate(23.31)" xlink:href="#Новый_образец_градиента_165"/><linearGradient id="Новый_образец_градиента_165-18" x1="-13.91" y1="192.54" x2="-71.04" y2="413.63" gradientTransform="translate(466.6 -26.83) rotate(23.31)" xlink:href="#Новый_образец_градиента_165"/><linearGradient id="Новый_образец_градиента_165-19" x1="-13.25" y1="167.38" x2="-77.49" y2="415.97" gradientTransform="translate(466.6 -26.83) rotate(23.31)" xlink:href="#Новый_образец_градиента_165"/><linearGradient id="Новый_образец_градиента_165-20" x1="-12.62" y1="192.88" x2="-69.75" y2="413.96" gradientTransform="translate(466.6 -26.83) rotate(23.31)" xlink:href="#Новый_образец_градиента_165"/><linearGradient id="Новый_образец_градиента_165-21" x1="-425.1" y1="194.13" x2="-499.38" y2="442.14" gradientTransform="matrix(-0.98, 0.2, 0.2, 0.98, -410.76, 42.53)" xlink:href="#Новый_образец_градиента_165"/><linearGradient id="Новый_образец_градиента_165-22" x1="-422.91" y1="188.92" x2="-500.62" y2="448.36" gradientTransform="matrix(-0.98, 0.2, 0.2, 0.98, -410.76, 42.53)" xlink:href="#Новый_образец_градиента_165"/><linearGradient id="Новый_образец_градиента_165-23" x1="-420.61" y1="178.54" x2="-503.57" y2="455.54" gradientTransform="matrix(-0.98, 0.2, 0.2, 0.98, -410.76, 42.53)" xlink:href="#Новый_образец_градиента_165"/><linearGradient id="Новый_образец_градиента_165-24" x1="-425.68" y1="184.75" x2="-504.08" y2="446.52" gradientTransform="matrix(-0.98, 0.2, 0.2, 0.98, -410.76, 42.53)" xlink:href="#Новый_образец_градиента_165"/><linearGradient id="Новый_образец_градиента_165-25" x1="-428.83" y1="178.7" x2="-509.03" y2="446.47" gradientTransform="matrix(-0.98, 0.2, 0.2, 0.98, -410.76, 42.53)" xlink:href="#Новый_образец_градиента_165"/><linearGradient id="Новый_образец_градиента_165-26" x1="-436.66" y1="179.75" x2="-514.63" y2="440.07" gradientTransform="matrix(-0.98, 0.2, 0.2, 0.98, -410.76, 42.53)" xlink:href="#Новый_образец_градиента_165"/><linearGradient id="Новый_образец_градиента_165-27" x1="-444.37" y1="174.22" x2="-523.12" y2="437.12" gradientTransform="matrix(-0.98, 0.2, 0.2, 0.98, -410.76, 42.53)" xlink:href="#Новый_образец_градиента_165"/><linearGradient id="Новый_образец_градиента_165-28" x1="-421.89" y1="173.95" x2="-509.25" y2="465.63" gradientTransform="matrix(-0.98, 0.2, 0.2, 0.98, -410.76, 42.53)" xlink:href="#Новый_образец_градиента_165"/><linearGradient id="Новый_образец_градиента_165-29" x1="-379.82" y1="353.7" x2="-436.95" y2="574.79" gradientTransform="matrix(-0.92, 0.4, 0.4, 0.92, -468.72, -26.83)" xlink:href="#Новый_образец_градиента_165"/><linearGradient id="Новый_образец_градиента_165-30" x1="-377.49" y1="354.3" x2="-434.63" y2="575.39" gradientTransform="matrix(-0.92, 0.4, 0.4, 0.92, -468.72, -26.83)" xlink:href="#Новый_образец_градиента_165"/><linearGradient id="Новый_образец_градиента_165-31" x1="-376.34" y1="354.6" x2="-433.48" y2="575.68" gradientTransform="matrix(-0.92, 0.4, 0.4, 0.92, -468.72, -26.83)" xlink:href="#Новый_образец_градиента_165"/><linearGradient id="Новый_образец_градиента_165-32" x1="-377.21" y1="354.37" x2="-434.35" y2="575.46" gradientTransform="matrix(-0.92, 0.4, 0.4, 0.92, -468.72, -26.83)" xlink:href="#Новый_образец_градиента_165"/><linearGradient id="Новый_образец_градиента_165-33" x1="-379.83" y1="353.7" x2="-436.96" y2="574.78" gradientTransform="matrix(-0.92, 0.4, 0.4, 0.92, -468.72, -26.83)" xlink:href="#Новый_образец_градиента_165"/><linearGradient id="Новый_образец_градиента_165-34" x1="-384.85" y1="352.4" x2="-441.99" y2="573.49" gradientTransform="matrix(-0.92, 0.4, 0.4, 0.92, -468.72, -26.83)" xlink:href="#Новый_образец_градиента_165"/><linearGradient id="Новый_образец_градиента_165-35" x1="-384.19" y1="327.23" x2="-448.44" y2="575.83" gradientTransform="matrix(-0.92, 0.4, 0.4, 0.92, -468.72, -26.83)" xlink:href="#Новый_образец_градиента_165"/><linearGradient id="Новый_образец_градиента_165-36" x1="-383.56" y1="352.73" x2="-440.69" y2="573.82" gradientTransform="matrix(-0.92, 0.4, 0.4, 0.92, -468.72, -26.83)" xlink:href="#Новый_образец_градиента_165"/><linearGradient id="Новый_образец_градиента_165-37" x1="226.63" y1="185.5" x2="220.11" y2="343.33" xlink:href="#Новый_образец_градиента_165"/><linearGradient id="Новый_образец_градиента_165-38" x1="206.56" y1="184.68" x2="200.04" y2="342.5" xlink:href="#Новый_образец_градиента_165"/><linearGradient id="Новый_образец_градиента_165-39" x1="187.08" y1="183.87" x2="180.56" y2="341.69" xlink:href="#Новый_образец_градиента_165"/></defs><polygon class="cls-1" points="125.09 352.32 75.5 352.37 64.56 304 19.83 282.61 30.95 234.3 0 195.57 30.95 156.84 19.83 108.53 64.56 87.13 75.51 38.76 125.09 38.82 155.93 0 200.56 21.64 245.19 0 276.03 38.82 325.61 38.76 336.55 87.13 381.29 108.53 370.16 156.84 401.12 195.57 370.16 234.3 381.29 282.61 336.55 304 325.61 352.37 276.03 352.32 245.19 391.14 200.56 369.49 155.93 391.14 125.09 352.32"/><polygon class="cls-2" points="128.37 345.51 80.94 345.57 70.47 299.29 27.68 278.82 38.32 232.62 8.71 195.57 38.32 158.52 27.68 112.31 70.47 91.85 80.94 45.57 128.37 45.63 157.87 8.5 200.56 29.2 243.25 8.5 272.75 45.63 320.18 45.57 330.65 91.85 373.44 112.31 362.8 158.52 392.41 195.57 362.8 232.62 373.44 278.83 330.64 299.29 320.18 345.57 272.75 345.51 243.25 382.64 200.56 361.93 157.87 382.64 128.37 345.51"/><circle class="cls-3" cx="200.56" cy="195.57" r="162.4"/><circle class="cls-4" cx="200.56" cy="195.57" r="149.93" transform="translate(-79.55 199.1) rotate(-45)"/><circle class="cls-5" cx="200.56" cy="195.57" r="146.53"/><path class="cls-6" d="M301.46,258.15l-.36-1.06-.89.38.32-2.06-1.62-5.51c-1.07-3.61.06-8.57,2.75-12.07l1.47-1.91,2.45,8.07a9.48,9.48,0,0,1,.38,2.12,8.61,8.61,0,0,1,1.71-1l7.32-3-.4,2.23c-.81,4.5-3.67,8.6-7,10l-4.9,2.07Zm.8-16.55a11.27,11.27,0,0,0-1,7.59l1.34,4.56,4-1.7c2-.83,3.81-3.1,4.83-5.8l-2.87,1.19a8,8,0,0,0-3.09,2.57l-2.21-1a9.37,9.37,0,0,0-.12-4.32Z"/><path class="cls-7" d="M295.52,267.18l-.31-.86-.84.14.35-1.62-1.88-6.37A12.82,12.82,0,0,1,296.5,246l1.46-1.37,2.58,8.56a10.36,10.36,0,0,1,.45,3.07,8.82,8.82,0,0,1,2.7-.92l8.24-1.38-.41,1.81c-1.09,4.74-4.69,8.54-8.78,9.24l-6,1Zm1.29-17.75a10.24,10.24,0,0,0-1.59,8.34l1.69,5.73,5.41-.93c2.55-.44,4.95-2.65,6.18-5.52l-4.41.74a7.43,7.43,0,0,0-3.79,2l-3,2.79.91-4a9.19,9.19,0,0,0-.07-4.7Z"/><path class="cls-8" d="M287.06,275.77l-.14-.91-.74,0,.52-1.41-1.1-7.15a12.43,12.43,0,0,1,5.69-12.14l1.58-1,1.51,9.26a11.51,11.51,0,0,1,0,3.61,9.24,9.24,0,0,1,3.29-.37l8.71.59-.61,1.57c-1.84,4.74-6.25,7.84-10.74,7.56l-6.59-.42Zm4-18.34a9.85,9.85,0,0,0-3,8.45l1,6.62,6.1.39a8.41,8.41,0,0,0,7.5-4.41l-5.19-.35a7.41,7.41,0,0,0-4.35,1.15L290,271.2l1.34-3.43a9.52,9.52,0,0,0,.58-5Z"/><path class="cls-9" d="M275,283.21l.1-1-.68-.25.83-1.17.84-7.7a12.84,12.84,0,0,1,9-10.74l1.76-.5-1,9.8a12.2,12.2,0,0,1-1.05,3.84,9.87,9.87,0,0,1,3.59.58l8.61,3.16-1,1.33c-3.16,4.34-8.5,6.22-13,4.58l-6.59-2.41Zm9-17.72a10.35,10.35,0,0,0-5.47,7.91l-.78,7.19,6.18,2.26a8.73,8.73,0,0,0,9-2.43l-5.39-2a7.74,7.74,0,0,0-4.77-.1l-3.46,1,2.12-2.9a10.1,10.1,0,0,0,2-5Z"/><path class="cls-10" d="M265.67,292.24v-.93l-.62-.22.62-1.13v-8.74a12.61,12.61,0,0,1,8.45-12.12l1.6-.51.1,10.67a13.66,13.66,0,0,1-.79,4.66,10.15,10.15,0,0,1,4.22.61l9.26,3.39-.75,1.28c-2.89,4.94-8.39,7.11-13.38,5.29L267,291.8Zm7.6-20.09a10.36,10.36,0,0,0-5.12,9.08v8.34l7.09,2.59a8.47,8.47,0,0,0,9.53-3l-6.36-2.33a8,8,0,0,0-5.15-.1l-3.07.95,1.63-2.77a11,11,0,0,0,1.53-5.66Z"/><path class="cls-11" d="M252.47,297.25l.13-1-.55-.3.74-1,1.23-8.91c.78-5.66,5-10.22,10.17-11.11l1.65-.28-1.38,10.84a13.64,13.64,0,0,1-1.48,4.67,10.27,10.27,0,0,1,4.21,1.25l8.82,4.8-.9,1.15c-3.6,4.62-9.45,6-14.22,3.43l-7-3.83Zm2.83-2.32,6.78,3.7A8.48,8.48,0,0,0,272.16,297L266,293.61a8.08,8.08,0,0,0-5.17-.86l-3.14.51,2-2.5a11.39,11.39,0,0,0,2.32-5.57l.94-7.33a10.65,10.65,0,0,0-6.45,8.54Z"/><path class="cls-12" d="M248.64,306.73a10.75,10.75,0,0,1-2.57-1.57L239.75,300l-1.1-.9.39-1.25,2.75-8.83c1.74-5.58,6.66-9.45,12-9.41h1.65l-3.2,10.68a14.05,14.05,0,0,1-2.3,4.53,10.53,10.53,0,0,1,4,2.05l7.93,6.46-1.05,1A11.3,11.3,0,0,1,248.64,306.73Zm-7.12-8.52,6.12,5a8.45,8.45,0,0,0,10.38.13l-5.63-4.6a8,8,0,0,0-5-1.82l-3.11-.05,2.29-2.1a11.71,11.71,0,0,0,3.27-5.25l2.19-7.33a10.76,10.76,0,0,0-7.88,7.51Z"/><path class="cls-13" d="M306,246.36l-.67-1.67a16.71,16.71,0,0,1-.93-9.71,14.63,14.63,0,0,1,1.55-4.1l.93-1.65,1.15,1.51c.59.79,3.5,5,2.11,9.87a9.86,9.86,0,0,1-2.81,4.53Zm1.18-12.15c-.14.43-.26.86-.36,1.3a13.81,13.81,0,0,0,.15,6.19,6.86,6.86,0,0,0,.78-1.77A8.44,8.44,0,0,0,307.22,234.21Z"/><path class="cls-14" d="M302.65,238.59l1.74,5.76a10.54,10.54,0,0,1,.15,4.9,9.25,9.25,0,0,1,3.6-3l5.23-2.16c-.73,4.08-3.3,7.83-6.23,9.07l-5.22,2.2-.07.09v-.06l0,0a.43.43,0,0,1,0-.11l-1.71-5.8c-1-3.25.1-7.77,2.55-10.95Z"/><path class="cls-15" d="M297.35,246.91l2,6.64a10.47,10.47,0,0,1,.09,5.34,8.65,8.65,0,0,1,4.44-2.33l6.42-1.07c-1,4.24-4.17,7.68-7.78,8.3l-6.4,1.1-.08.09,0-.07H296l0-.11-2-6.69a11.57,11.57,0,0,1,3.32-11.21Z"/><path class="cls-16" d="M291.94,255.18l1.21,7.43a10.82,10.82,0,0,1-.65,5.61,8.58,8.58,0,0,1,5.07-1.33l7,.47c-1.63,4.21-5.55,7-9.5,6.77l-7-.45-.1.07v-.08h-.07a.54.54,0,0,0,.05-.11l-1.15-7.49a11.15,11.15,0,0,1,5.11-10.89Z"/><path class="cls-17" d="M285.43,263.58l-.79,8a11.33,11.33,0,0,1-2.18,5.58,8.92,8.92,0,0,1,5.53.14l7.06,2.59c-2.81,3.86-7.59,5.6-11.55,4.15l-7-2.56-.11,0v-.07l-.07,0,.08-.1.88-8a11.59,11.59,0,0,1,8.13-9.68Z"/><path class="cls-18" d="M274.49,270.28l.09,9a12.17,12.17,0,0,1-1.7,6.3,9.23,9.23,0,0,1,5.94.12l7.87,2.88c-2.56,4.38-7.48,6.37-11.89,4.75L267,290.48l-.12,0v-.09l-.08,0,.08-.11v-9.08a11.38,11.38,0,0,1,7.58-10.94Z"/><path class="cls-19" d="M264.4,276.18l-1.17,9.17a12.64,12.64,0,0,1-2.59,6.17,9.29,9.29,0,0,1,6,1l7.53,4.1c-3.19,4.1-8.43,5.4-12.64,3.1l-7.43-4.05-.12,0v-.09l-.07,0,.09-.1,1.28-9.24c.71-5.14,4.49-9.26,9.15-10.05Z"/><path class="cls-20" d="M255.12,279.74,252.05,290a14.48,14.48,0,0,1-4.06,6.52,10.49,10.49,0,0,1,6.47,2.36l7.67,6.26c-4.38,4-10.5,4.44-14.77.93l-7.5-6.16h-.15l0-.1-.07-.06.12-.1,3.2-10.27c1.78-5.71,6.78-9.64,12.13-9.61Z"/><path class="cls-21" d="M306.53,244.22a8.52,8.52,0,0,0,2.45-3.95c1.27-4.45-1.59-8.37-1.9-8.78a13.26,13.26,0,0,0-1.43,3.76,15.56,15.56,0,0,0,.88,9Z"/><path class="cls-22" d="M100.34,258.15l.37-1.06.89.38-.33-2.06,1.63-5.51c1.06-3.61-.07-8.57-2.76-12.07l-1.47-1.91L96.22,244a10.09,10.09,0,0,0-.38,2.12,8.27,8.27,0,0,0-1.7-1l-7.33-3,.4,2.23c.81,4.5,3.68,8.6,7,10l4.9,2.07Zm-.8-16.55a11.34,11.34,0,0,1,1,7.59l-1.35,4.56-4-1.7c-2-.83-3.82-3.1-4.84-5.8l2.88,1.19A7.86,7.86,0,0,1,96.27,250l2.21-1a9.37,9.37,0,0,1,.12-4.32Z"/><path class="cls-23" d="M106.29,267.18l.3-.86.84.14-.34-1.62,1.87-6.37A12.84,12.84,0,0,0,105.31,246l-1.46-1.37-2.59,8.56a11.06,11.06,0,0,0-.45,3.07,8.76,8.76,0,0,0-2.69-.92L89.87,254l.42,1.81c1.08,4.74,4.69,8.54,8.77,9.24l6,1ZM105,249.43a10.24,10.24,0,0,1,1.59,8.34l-1.69,5.73-5.41-.93c-2.55-.44-4.94-2.65-6.17-5.52l4.4.74a7.4,7.4,0,0,1,3.79,2l3,2.79-.91-4a9.08,9.08,0,0,1,.07-4.7Z"/><path class="cls-24" d="M114.74,275.77l.14-.91.74,0-.52-1.41,1.1-7.15a12.41,12.41,0,0,0-5.69-12.14l-1.58-1-1.5,9.26a11.5,11.5,0,0,0,0,3.61,9.19,9.19,0,0,0-3.28-.37l-8.72.59.61,1.57c1.84,4.74,6.26,7.84,10.74,7.56l6.59-.42Zm-4-18.34a9.82,9.82,0,0,1,3,8.45l-1,6.62-6.11.39a8.41,8.41,0,0,1-7.5-4.41l5.19-.35a7.41,7.41,0,0,1,4.35,1.15l3.14,1.92-1.34-3.43a9.52,9.52,0,0,1-.58-5Z"/><path class="cls-25" d="M126.84,283.21l-.11-1,.69-.25-.84-1.17-.84-7.7a12.84,12.84,0,0,0-9-10.74l-1.75-.5,1,9.8a12.2,12.2,0,0,0,1,3.84,9.79,9.79,0,0,0-3.58.58l-8.61,3.16,1,1.33c3.16,4.34,8.5,6.22,13,4.58l6.59-2.41Zm-9-17.72a10.34,10.34,0,0,1,5.46,7.91l.79,7.19-6.18,2.26a8.74,8.74,0,0,1-9-2.43l5.39-2a7.74,7.74,0,0,1,4.77-.1l3.46,1-2.12-2.9a10.08,10.08,0,0,1-1.95-5Z"/><path class="cls-26" d="M136.14,292.24v-.93l.63-.22-.63-1.13v-8.74a12.62,12.62,0,0,0-8.46-12.12l-1.6-.51-.1,10.67a13.44,13.44,0,0,0,.8,4.66,10.17,10.17,0,0,0-4.23.61l-9.26,3.39.75,1.28c2.89,4.94,8.4,7.11,13.39,5.29l7.37-2.69Zm-7.61-20.09a10.36,10.36,0,0,1,5.12,9.08v8.34l-7.09,2.59a8.47,8.47,0,0,1-9.53-3l6.37-2.33a7.93,7.93,0,0,1,5.14-.1l3.07.95L130,284.94a10.88,10.88,0,0,1-1.52-5.66Z"/><path class="cls-27" d="M149.33,297.25l-.13-1,.55-.3-.73-1-1.24-8.91c-.78-5.66-5-10.22-10.17-11.11l-1.65-.28,1.39,10.84a13.63,13.63,0,0,0,1.47,4.67,10.32,10.32,0,0,0-4.21,1.25l-8.82,4.8.9,1.15c3.6,4.62,9.45,6,14.22,3.43l7-3.83Zm-2.83-2.32-6.78,3.7A8.48,8.48,0,0,1,129.64,297l6.16-3.35a8.05,8.05,0,0,1,5.16-.86l3.14.51-2-2.5a11.31,11.31,0,0,1-2.33-5.57l-.94-7.33a10.65,10.65,0,0,1,6.45,8.54Z"/><path class="cls-28" d="M153.16,306.73a10.56,10.56,0,0,0,2.57-1.57l6.32-5.19,1.1-.9-.39-1.25L160,289c-1.73-5.58-6.66-9.45-12-9.41h-1.66l3.2,10.68a14.26,14.26,0,0,0,2.3,4.53,10.56,10.56,0,0,0-4,2.05l-7.94,6.46,1.06,1A11.28,11.28,0,0,0,153.16,306.73Zm7.12-8.52-6.12,5a8.45,8.45,0,0,1-10.38.13l5.63-4.6a8.05,8.05,0,0,1,5-1.82l3.11-.05-2.29-2.1a11.54,11.54,0,0,1-3.27-5.25l-2.2-7.33a10.76,10.76,0,0,1,7.88,7.51Z"/><path class="cls-29" d="M95.76,246.36l.67-1.67a16.79,16.79,0,0,0,.94-9.71,14.66,14.66,0,0,0-1.56-4.1l-.93-1.65-1.14,1.51c-.6.79-3.51,5-2.12,9.87a9.88,9.88,0,0,0,2.82,4.53Zm-1.18-12.15a11.94,11.94,0,0,1,.36,1.3,13.53,13.53,0,0,1-.15,6.19,7.22,7.22,0,0,1-.78-1.77A8.5,8.5,0,0,1,94.58,234.21Z"/><path class="cls-30" d="M99.16,238.59l-1.75,5.76a10.68,10.68,0,0,0-.15,4.9,9.11,9.11,0,0,0-3.6-3l-5.22-2.16c.73,4.08,3.29,7.83,6.23,9.07l5.22,2.2.06.09,0-.06,0,0,0-.11,1.72-5.8c1-3.25-.11-7.77-2.55-10.95Z"/><path class="cls-31" d="M104.46,246.91l-2,6.64a10.47,10.47,0,0,0-.1,5.34,8.65,8.65,0,0,0-4.44-2.33l-6.41-1.07c1,4.24,4.17,7.68,7.77,8.3l6.4,1.1.08.09,0-.07h.06l0-.11,2-6.69a11.58,11.58,0,0,0-3.31-11.21Z"/><path class="cls-32" d="M109.86,255.18l-1.21,7.43a10.82,10.82,0,0,0,.66,5.61,8.63,8.63,0,0,0-5.08-1.33l-7,.47c1.64,4.21,5.55,7,9.5,6.77l7-.45.1.07v-.08h.07a.54.54,0,0,1-.05-.11l1.15-7.49a11.15,11.15,0,0,0-5.11-10.89Z"/><path class="cls-33" d="M116.37,263.58l.79,8a11.34,11.34,0,0,0,2.19,5.58,8.92,8.92,0,0,0-5.53.14l-7.07,2.59c2.82,3.86,7.59,5.6,11.55,4.15l7-2.56.11,0v-.07l.06,0-.08-.1-.87-8a11.6,11.6,0,0,0-8.14-9.68Z"/><path class="cls-34" d="M127.31,270.28l-.09,9a12.17,12.17,0,0,0,1.7,6.3,9.23,9.23,0,0,0-5.94.12l-7.86,2.88c2.56,4.38,7.47,6.37,11.88,4.75l7.78-2.84.12,0v-.09l.08,0a1,1,0,0,0-.08-.11v-9.08a11.4,11.4,0,0,0-7.59-10.94Z"/><path class="cls-35" d="M137.41,276.18l1.17,9.17a12.54,12.54,0,0,0,2.58,6.17,9.29,9.29,0,0,0-6,1l-7.53,4.1c3.2,4.1,8.43,5.4,12.65,3.1l7.42-4.05.12,0v-.09l.07,0-.09-.1-1.28-9.24c-.71-5.14-4.49-9.26-9.14-10.05Z"/><path class="cls-36" d="M146.69,279.74,149.75,290a14.42,14.42,0,0,0,4.07,6.52,10.5,10.5,0,0,0-6.48,2.36l-7.67,6.26c4.38,4,10.5,4.44,14.78.93l7.5-6.16h.14l0-.1.07-.06-.12-.1-3.2-10.27c-1.78-5.71-6.78-9.64-12.12-9.61Z"/><path class="cls-37" d="M95.28,244.22a8.52,8.52,0,0,1-2.46-3.95c-1.27-4.45,1.6-8.37,1.91-8.78a13.59,13.59,0,0,1,1.42,3.76,15.67,15.67,0,0,1-.87,9Z"/><polygon class="cls-38" points="225.42 299.27 226.21 303.89 222.07 301.72 217.91 303.89 218.71 299.27 215.35 296.01 219.99 295.33 222.07 291.13 224.14 295.33 228.77 296.01 225.42 299.27"/><polygon class="cls-39" points="207.35 293.79 208.55 300.78 202.27 297.49 195.97 300.78 197.17 293.79 192.09 288.84 199.11 287.82 202.27 281.45 205.41 287.82 212.43 288.84 207.35 293.79"/><polygon class="cls-40" points="185.81 299.01 186.6 303.63 182.46 301.45 178.31 303.63 179.1 299.01 175.75 295.75 180.38 295.07 182.46 290.87 184.53 295.07 189.16 295.75 185.81 299.01"/><path class="cls-41" d="M104.53,123.06c1.86,0,3-.13,3.26-6.19l.36-8.17h13.58v17.59h-4v-14.1h-5.76l-.31,4.89c-.52,8.28-2.93,9.47-7.09,9.47Z"/><path class="cls-41" d="M128.71,124.4l-5.3-11.66h4.22l3.15,7.29,2.92-7.29H138l-7.79,17.84h-4.24Z"/><path class="cls-41" d="M147.39,121.74a5,5,0,0,1-3.81,1.7c-3.49,0-4.86-2.53-4.86-5.87v-4.83h4v4.42c0,1.84.7,2.82,2.33,2.82a3.07,3.07,0,0,0,2.38-1.4v-5.84h4v13.55h-4Z"/><path class="cls-41" d="M154.13,112.74h4v10.42h5V112.74h4v10.42h5V112.74h4v13.55H154.13Z"/><path class="cls-41" d="M178.73,112.74h4v7.88l6.44-7.88h3.57v13.55h-4v-7.92l-6.47,7.92h-3.54Z"/><path class="cls-41" d="M195.49,112.74h4v7.88l6.44-7.88h3.57v13.55h-4v-7.92L199,126.29h-3.54Zm2.41-3.68,1.42-2a3.84,3.84,0,0,0,6.31,0l1.42,2a5.61,5.61,0,0,1-9.15,0Z"/><path class="cls-41" d="M216,123.16h1.43c1.08-1.29,1.6-2.22,1.75-5l.29-5.4H230.3v10.42h2v6.65h-4v-3.52h-8.38v3.52h-4Zm10.37,0v-7.29H223l-.1,2.3c-.21,2.82-.49,3.88-1.24,5Z"/><path class="cls-41" d="M234.26,112.74h4v7.88l6.44-7.88h3.57v13.55h-4v-7.92l-6.47,7.92h-3.54Z"/><path class="cls-41" d="M249.93,123.34c1.55,0,2.41-.52,2.54-4.32l.23-6.28h11.79v13.55h-3.95V115.87h-4.25l-.1,3.31c-.21,6.39-2.77,7.29-6.26,7.29Z"/><path class="cls-41" d="M266.59,119.56a6.76,6.76,0,0,1,6.93-7.16c4,0,6.52,2.64,6.52,6.6a15,15,0,0,1-.13,1.62h-9.42c.31,1.56,1.4,2.67,3.65,2.67a4.58,4.58,0,0,0,3.47-1.76l2.09,2.61a7.68,7.68,0,0,1-5.77,2.51A6.94,6.94,0,0,1,266.59,119.56Zm4-1.81h5.59a2.38,2.38,0,0,0-2.69-2.17A2.82,2.82,0,0,0,270.62,117.75Z"/><path class="cls-41" d="M282.13,112.74h4v1.42a5.37,5.37,0,0,1,4-1.76c3.75,0,6.47,2.77,6.47,7.11s-2.72,7.12-6.47,7.12a5.46,5.46,0,0,1-4-1.74v5.69h-4Zm10.45,6.77a3.31,3.31,0,0,0-3.44-3.64,3.35,3.35,0,0,0-3.05,1.75v3.81a3.37,3.37,0,0,0,3.05,1.73A3.31,3.31,0,0,0,292.58,119.51Z"/><path class="cls-41" d="M113.56,143.77H126.7v13.56h-4V146.9h-5.23v10.43h-4Z"/><path class="cls-41" d="M128.76,150.57a7.32,7.32,0,1,1,7.32,7.14A6.88,6.88,0,0,1,128.76,150.57Zm10.63,0c0-2.22-1.37-3.67-3.31-3.67s-3.31,1.45-3.31,3.67,1.37,3.68,3.31,3.68S139.39,152.8,139.39,150.57Z"/><path class="cls-41" d="M150.69,143.77h13.14v13.56h-4V146.9h-5.23v10.43h-4Z"/><path class="cls-41" d="M166.63,143.77h4v1.42a5.44,5.44,0,0,1,4-1.75c3.75,0,6.46,2.76,6.46,7.11s-2.71,7.11-6.46,7.11a5.5,5.5,0,0,1-4-1.73v5.69h-4Zm10.45,6.78a3.32,3.32,0,0,0-3.44-3.65,3.36,3.36,0,0,0-3.06,1.76v3.8a3.4,3.4,0,0,0,3.06,1.74A3.32,3.32,0,0,0,177.08,150.55Z"/><path class="cls-41" d="M182.45,150.57a7.32,7.32,0,1,1,7.32,7.14A6.88,6.88,0,0,1,182.45,150.57Zm10.63,0c0-2.22-1.37-3.67-3.31-3.67s-3.31,1.45-3.31,3.67,1.37,3.68,3.31,3.68S193.08,152.8,193.08,150.57Z"/><path class="cls-41" d="M197.82,154.2h1.42c1.09-1.3,1.6-2.23,1.76-5l.28-5.41h10.87V154.2h2v6.64h-4v-3.51h-8.38v3.51h-4Zm10.37,0v-7.3h-3.31l-.11,2.3c-.2,2.82-.49,3.88-1.24,5Z"/><path class="cls-41" d="M225.57,155.93a5.51,5.51,0,0,1-4,1.73c-3.75,0-6.46-2.77-6.46-7.11s2.71-7.11,6.46-7.11a5.45,5.45,0,0,1,4,1.75v-1.42h4v13.56h-4Zm0-3.47v-3.8a3.37,3.37,0,0,0-3-1.76,3.66,3.66,0,0,0,0,7.3A3.41,3.41,0,0,0,225.57,152.46Z"/><path class="cls-41" d="M230.61,157.25l5.41-7-4.92-6.41v-.08h4.45l3.65,5h.85v-5h4v5h.85l3.65-5H253v.08L248,150.26l5.41,7v.08h-4.63l-4-5.44H244v5.44h-4v-5.44h-.85l-4,5.44h-4.63Z"/><path class="cls-41" d="M263.46,155.93a5.53,5.53,0,0,1-4,1.73c-3.75,0-6.46-2.77-6.46-7.11s2.71-7.11,6.46-7.11a5.47,5.47,0,0,1,4,1.75v-1.42h4v13.56h-4Zm0-3.47v-3.8a3.37,3.37,0,0,0-3-1.76,3.66,3.66,0,0,0,0,7.3A3.41,3.41,0,0,0,263.46,152.46Z"/><path class="cls-41" d="M270.21,143.77h5.12l3.7,9.16,3.7-9.16h5.12v13.56h-4v-7.66l-3.08,7.66h-3.57l-3.07-7.66v7.66h-4Z"/><path class="cls-42" d="M107.51,179.27h6.58v11.34h12.66V179.27h6.58V208h-6.58V196.31H114.09V208h-6.58Z"/><path class="cls-42" d="M146.57,196.14l-10.63-16.75v-.12h7.72l6.21,10.5,6.2-10.5h7.72v.12l-10.63,16.75V208h-6.59Z"/><path class="cls-42" d="M166.07,195.59V179.27h6.58v15.94c0,4.3,1.51,7.3,5.9,7.3s5.91-3,5.91-7.3V179.27H191v16.32c0,7.38-4,13-12.49,13S166.07,203,166.07,195.59Z"/><path class="cls-42" d="M196.27,179.27H202l14.3,17.8v-17.8h6.58V208h-5.7l-14.34-17.8V208h-6.58Z"/><path class="cls-42" d="M228.46,179.27h12.06c8.48,0,14.47,5.06,14.47,14.34S249,208,240.52,208H228.46ZM235,185v17.21h5.19c4.93,0,8-3,8-8.6s-3-8.61-8-8.61Z"/><path class="cls-42" d="M266.05,179.27h7.84L284.82,208H278l-2-5.48H263.94l-2,5.48h-6.79Zm0,17.5h7.84L270,186.14Z"/><path class="cls-42" d="M287.31,179.27h6.58V208h-6.58Z"/><path class="cls-41" d="M142.26,232.38h6.5c2.76,0,4.26,1.32,4.26,3.47a2.79,2.79,0,0,1-1.65,2.58c1.6.44,2.74,1.38,2.74,3.24,0,2.25-1.58,3.67-4.63,3.67h-7.22Zm6,5.38c1.55,0,2.4-.59,2.4-1.73s-.85-1.73-2.4-1.73h-3.65v3.46Zm.85,5.67c1.71,0,2.64-.62,2.64-1.89s-.93-1.86-2.64-1.86h-4.5v3.75Z"/><path class="cls-41" d="M162.2,236.55a8.75,8.75,0,0,1,8.82-9.11,8.59,8.59,0,0,1,7.81,4.55L177,233.26a6.35,6.35,0,0,0-5.92-3.57c-3.85,0-6.39,3-6.39,6.86s2.54,6.85,6.39,6.85a6.35,6.35,0,0,0,5.92-3.57l1.86,1.27a8.59,8.59,0,0,1-7.81,4.55A8.75,8.75,0,0,1,162.2,236.55Z"/><path class="cls-41" d="M191.22,243.5a5.52,5.52,0,0,1-4.42,2.13c-3.65,0-6.34-2.75-6.34-6.78s2.69-6.75,6.34-6.75a5.54,5.54,0,0,1,4.42,2.12v-1.84h2.33v13h-2.33Zm0-2.38v-4.5a4.63,4.63,0,1,0,0,4.5Z"/><path class="cls-41" d="M197.09,232.38h3L205,242.65,210,232.38h3v13h-2.32v-9.47L206,245.34h-2l-4.6-9.47v9.47h-2.33Z"/><path class="cls-41" d="M226.5,243.5a5.54,5.54,0,0,1-4.42,2.13c-3.65,0-6.34-2.75-6.34-6.78s2.69-6.75,6.34-6.75a5.56,5.56,0,0,1,4.42,2.12v-1.84h2.33v13H226.5Zm0-2.38v-4.5a4.63,4.63,0,1,0,0,4.5Z"/><path class="cls-41" d="M232.37,232.38h2.33v1.84a5.46,5.46,0,0,1,4.39-2.12c3.65,0,6.34,2.74,6.34,6.75s-2.69,6.78-6.34,6.78a5.5,5.5,0,0,1-4.39-2.1v6.57h-2.33Zm10.68,6.47a4.43,4.43,0,0,0-8.35-2.25v4.52a4.43,4.43,0,0,0,8.35-2.27Z"/><path class="cls-41" d="M247.42,238.87c0-4,2.64-6.77,6.39-6.77a6.06,6.06,0,0,1,6.21,6.36,8.51,8.51,0,0,1-.11,1.22H249.78a4.08,4.08,0,0,0,4.32,3.88,5.15,5.15,0,0,0,4.21-2.28l1.42,1.47a7,7,0,0,1-5.74,2.9A6.41,6.41,0,0,1,247.42,238.87Zm2.38-1.13h7.86a3.68,3.68,0,0,0-3.85-3.6A3.91,3.91,0,0,0,249.8,237.74Z"/></svg>