<svg id="Layer_1" data-name="Layer 1" xmlns="http://www.w3.org/2000/svg" xmlns:xlink="http://www.w3.org/1999/xlink" viewBox="0 0 379.4 351.4"><defs><style>.cls-1{fill:#c49622;}.cls-2{fill:url(#radial-gradient);}.cls-3{fill:url(#radial-gradient-8);}.cls-4{fill:url(#radial-gradient-9);}.cls-5{fill:url(#radial-gradient-10);}.cls-6{fill:url(#radial-gradient-11);}.cls-7{fill:url(#radial-gradient-12);}.cls-8{fill:url(#radial-gradient-13);}.cls-9{fill:url(#radial-gradient-14);}.cls-10{fill:url(#radial-gradient-15);}.cls-11{fill:url(#radial-gradient-16);}.cls-12{fill:url(#radial-gradient-17);}.cls-13{fill:url(#radial-gradient-18);}.cls-14{fill:url(#radial-gradient-19);}.cls-15{fill:url(#radial-gradient-20);}.cls-16{fill:url(#radial-gradient-21);}.cls-17{fill:url(#radial-gradient-22);}.cls-18{fill:url(#radial-gradient-23);}.cls-19{fill:url(#radial-gradient-24);}.cls-20{fill:url(#radial-gradient-25);}.cls-21{fill:url(#radial-gradient-26);}.cls-22{fill:url(#radial-gradient-27);}.cls-23{fill:url(#radial-gradient-28);}.cls-24{fill:url(#radial-gradient-29);}.cls-25{fill:url(#radial-gradient-30);}.cls-26{fill:url(#radial-gradient-31);}.cls-27{fill:url(#radial-gradient-32);}.cls-28{fill:url(#radial-gradient-33);}.cls-29{fill:url(#radial-gradient-34);}.cls-30{fill:url(#radial-gradient-35);}.cls-31{fill:url(#radial-gradient-36);}.cls-32{fill:url(#radial-gradient-37);}.cls-33{fill:url(#radial-gradient-38);}.cls-34{fill:url(#radial-gradient-39);}.cls-35{fill:url(#radial-gradient-40);}.cls-36{fill:url(#radial-gradient-41);}.cls-37{fill:url(#radial-gradient-42);}.cls-38{fill:url(#radial-gradient-43);}.cls-39{fill:url(#radial-gradient-44);}.cls-40{fill:url(#radial-gradient-45);}.cls-41{fill:url(#radial-gradient-46);}.cls-42{fill:url(#radial-gradient-47);}.cls-43{fill:url(#radial-gradient-48);}.cls-44{fill:url(#radial-gradient-49);}.cls-45{fill:url(#radial-gradient-50);}.cls-46{fill:url(#radial-gradient-51);}.cls-47{fill:url(#radial-gradient-52);}.cls-48{fill:url(#radial-gradient-53);}</style><radialGradient id="radial-gradient" cx="179.89" cy="190.9" r="153.31" gradientUnits="userSpaceOnUse"><stop offset="0" stop-color="#2668b5"/><stop offset="1" stop-color="#0f1d37"/></radialGradient><radialGradient id="radial-gradient-8" cx="116.05" cy="224.52" r="112.69" xlink:href="#radial-gradient"/><radialGradient id="radial-gradient-9" cx="151.63" cy="296.75" r="15.59" xlink:href="#radial-gradient"/><radialGradient id="radial-gradient-10" cx="126.47" cy="286.43" r="14.93" xlink:href="#radial-gradient"/><radialGradient id="radial-gradient-11" cx="102.48" cy="275.08" r="14.47" xlink:href="#radial-gradient"/><radialGradient id="radial-gradient-12" cx="80.16" cy="261.61" r="14.13" xlink:href="#radial-gradient"/><radialGradient id="radial-gradient-13" cx="60.46" cy="245.2" r="13.84" xlink:href="#radial-gradient"/><radialGradient id="radial-gradient-14" cx="44.86" cy="225.31" r="13.61" xlink:href="#radial-gradient"/><radialGradient id="radial-gradient-15" cx="34.93" cy="202.13" r="13.37" xlink:href="#radial-gradient"/><radialGradient id="radial-gradient-16" cx="30.43" cy="176.93" r="13.08" xlink:href="#radial-gradient"/><radialGradient id="radial-gradient-17" cx="30.29" cy="150.76" r="12.92" xlink:href="#radial-gradient"/><radialGradient id="radial-gradient-18" cx="34.33" cy="124.51" r="12.86" xlink:href="#radial-gradient"/><radialGradient id="radial-gradient-19" cx="42.3" cy="98.89" r="12.76" xlink:href="#radial-gradient"/><radialGradient id="radial-gradient-20" cx="46.05" cy="75.23" r="15.66" xlink:href="#radial-gradient"/><radialGradient id="radial-gradient-21" cx="137.78" cy="323.97" r="16.14" xlink:href="#radial-gradient"/><radialGradient id="radial-gradient-22" cx="108.93" cy="310.63" r="16.39" xlink:href="#radial-gradient"/><radialGradient id="radial-gradient-23" cx="80.51" cy="295.04" r="16.6" xlink:href="#radial-gradient"/><radialGradient id="radial-gradient-24" cx="54.27" cy="274.79" r="16.53" xlink:href="#radial-gradient"/><radialGradient id="radial-gradient-25" cx="32.71" cy="247.57" r="16.32" xlink:href="#radial-gradient"/><radialGradient id="radial-gradient-26" cx="18.15" cy="216.8" r="15.77" xlink:href="#radial-gradient"/><radialGradient id="radial-gradient-27" cx="11.15" cy="184.4" r="15.48" xlink:href="#radial-gradient"/><radialGradient id="radial-gradient-28" cx="10.84" cy="151.69" r="15.3" xlink:href="#radial-gradient"/><radialGradient id="radial-gradient-29" cx="16.45" cy="119.92" r="15.29" xlink:href="#radial-gradient"/><radialGradient id="radial-gradient-30" cx="27.62" cy="89.84" r="15.15" xlink:href="#radial-gradient"/><radialGradient id="radial-gradient-31" cx="266.57" cy="224.92" r="112.62" xlink:href="#radial-gradient"/><radialGradient id="radial-gradient-32" cx="243.12" cy="324.49" r="16.11" xlink:href="#radial-gradient"/><radialGradient id="radial-gradient-33" cx="268.93" cy="312.47" r="16.19" xlink:href="#radial-gradient"/><radialGradient id="radial-gradient-34" cx="294.52" cy="298.75" r="16.23" xlink:href="#radial-gradient"/><radialGradient id="radial-gradient-35" cx="318.74" cy="281.67" r="16.11" xlink:href="#radial-gradient"/><radialGradient id="radial-gradient-36" cx="339.9" cy="259.67" r="15.8" xlink:href="#radial-gradient"/><radialGradient id="radial-gradient-37" cx="356.09" cy="233.55" r="15.3" xlink:href="#radial-gradient"/><radialGradient id="radial-gradient-38" cx="366.25" cy="205.56" r="14.83" xlink:href="#radial-gradient"/><radialGradient id="radial-gradient-39" cx="370.39" cy="176.45" r="14.5" xlink:href="#radial-gradient"/><radialGradient id="radial-gradient-40" cx="369.59" cy="147.39" r="14.26" xlink:href="#radial-gradient"/><radialGradient id="radial-gradient-41" cx="363.39" cy="119.24" r="14.12" xlink:href="#radial-gradient"/><radialGradient id="radial-gradient-42" cx="352.67" cy="92.5" r="13.89" xlink:href="#radial-gradient"/><radialGradient id="radial-gradient-43" cx="335.42" cy="75.79" r="15.59" xlink:href="#radial-gradient"/><radialGradient id="radial-gradient-44" cx="231.89" cy="296.2" r="15.55" xlink:href="#radial-gradient"/><radialGradient id="radial-gradient-45" cx="259.53" cy="284.44" r="14.99" xlink:href="#radial-gradient"/><radialGradient id="radial-gradient-46" cx="285.6" cy="271.21" r="14.61" xlink:href="#radial-gradient"/><radialGradient id="radial-gradient-47" cx="309.27" cy="255.13" r="14.39" xlink:href="#radial-gradient"/><radialGradient id="radial-gradient-48" cx="329.11" cy="235.22" r="14.24" xlink:href="#radial-gradient"/><radialGradient id="radial-gradient-49" cx="343.02" cy="211.06" r="14.06" xlink:href="#radial-gradient"/><radialGradient id="radial-gradient-50" cx="349.6" cy="183.9" r="13.78" xlink:href="#radial-gradient"/><radialGradient id="radial-gradient-51" cx="350.52" cy="155.23" r="13.67" xlink:href="#radial-gradient"/><radialGradient id="radial-gradient-52" cx="346.36" cy="126.34" r="13.72" xlink:href="#radial-gradient"/><radialGradient id="radial-gradient-53" cx="337.34" cy="98.21" r="13.71" xlink:href="#radial-gradient"/></defs><path class="cls-1" d="M82.88,110.69c2.1,0,3.35-.15,3.67-7L87,94.5h15.32v19.84H97.73V98.43H91.22L90.87,104c-.58,9.33-3.29,10.68-8,10.68Z"/><path class="cls-1" d="M110.16,112.21l-6-13.16h4.76l3.56,8.22,3.3-8.22h4.78l-8.78,20.13H107Z"/><path class="cls-1" d="M131.22,109.2a5.59,5.59,0,0,1-4.29,1.93c-3.94,0-5.48-2.86-5.48-6.63V99.05h4.46v5c0,2.07.79,3.18,2.63,3.18a3.45,3.45,0,0,0,2.68-1.58V99.05h4.46v15.29h-4.46Z"/><path class="cls-1" d="M138.83,99.05h4.47v11.76h5.6V99.05h4.46v11.76H159V99.05h4.46v15.29h-24.6Z"/><path class="cls-1" d="M166.58,99.05H171V108l7.27-8.9h4v15.29h-4.46v-8.93l-7.29,8.93h-4Z"/><path class="cls-1" d="M185.48,99.05H190V108l7.26-8.9h4v15.29h-4.47v-8.93l-7.29,8.93h-4Zm2.72-4.15,1.6-2.21a4.34,4.34,0,0,0,7.12,0l1.6,2.21a6.33,6.33,0,0,1-10.32,0Z"/><path class="cls-1" d="M208.59,110.81h1.6c1.23-1.46,1.81-2.51,2-5.67l.32-6.09h12.25v11.76H227v7.49h-4.46v-4h-9.46v4h-4.46Zm11.7,0v-8.23h-3.74l-.11,2.59c-.24,3.18-.56,4.38-1.4,5.64Z"/><path class="cls-1" d="M229.22,99.05h4.46V108l7.26-8.9h4v15.29h-4.46v-8.93l-7.3,8.93h-4Z"/><path class="cls-1" d="M246.9,111c1.75,0,2.71-.58,2.85-4.87l.27-7.09h13.3v15.29h-4.46V102.58h-4.79l-.11,3.73c-.24,7.21-3.13,8.23-7.06,8.23Z"/><path class="cls-1" d="M265.68,106.75c0-4.84,3.33-8.08,7.82-8.08s7.36,3,7.36,7.44a16.51,16.51,0,0,1-.15,1.84H270.09c.35,1.75,1.57,3,4.11,3a5.13,5.13,0,0,0,3.91-2l2.37,2.94a8.69,8.69,0,0,1-6.51,2.83C268.83,114.74,265.68,111.13,265.68,106.75Zm4.55-2h6.31c-.18-1.61-1.29-2.45-3-2.45A3.17,3.17,0,0,0,270.23,104.71Z"/><path class="cls-1" d="M283.22,99.05h4.46v1.6a6.12,6.12,0,0,1,4.55-2c4.23,0,7.3,3.12,7.3,8s-3.07,8-7.3,8a6.17,6.17,0,0,1-4.55-1.95v6.42h-4.46ZM295,106.69c0-2.65-1.66-4.11-3.88-4.11a3.77,3.77,0,0,0-3.44,2v4.29a3.81,3.81,0,0,0,3.44,2C293.34,110.81,295,109.35,295,106.69Z"/><path class="cls-1" d="M93.06,134.06h14.82v15.29h-4.46V137.59h-5.9v11.76H93.06Z"/><path class="cls-1" d="M110.21,141.73c0-4.06,2.66-8,8.26-8s8.26,4,8.26,8-2.66,8.05-8.26,8.05S110.21,145.79,110.21,141.73Zm12,0c0-2.51-1.54-4.14-3.73-4.14s-3.73,1.63-3.73,4.14,1.54,4.14,3.73,4.14S122.2,144.24,122.2,141.73Z"/><path class="cls-1" d="M135,134.06h14.82v15.29h-4.46V137.59h-5.89v11.76H135Z"/><path class="cls-1" d="M152.92,134.06h4.47v1.6a6.07,6.07,0,0,1,4.55-2c4.23,0,7.29,3.12,7.29,8s-3.06,8-7.29,8a6.15,6.15,0,0,1-4.55-1.95v6.42h-4.47Zm11.79,7.64c0-2.65-1.66-4.11-3.88-4.11a3.77,3.77,0,0,0-3.44,2v4.29a3.81,3.81,0,0,0,3.44,1.95C163.05,145.81,164.71,144.36,164.71,141.7Z"/><path class="cls-1" d="M170.78,141.73c0-4.06,2.65-8,8.26-8s8.25,4,8.25,8-2.65,8.05-8.25,8.05S170.78,145.79,170.78,141.73Zm12,0c0-2.51-1.55-4.14-3.73-4.14s-3.74,1.63-3.74,4.14,1.55,4.14,3.74,4.14S182.77,144.24,182.77,141.73Z"/><path class="cls-1" d="M188.11,145.81h1.6c1.23-1.45,1.81-2.5,2-5.66l.32-6.09h12.25v11.75h2.22v7.5H202v-4h-9.46v4h-4.46Zm11.7,0v-8.22h-3.74l-.11,2.59c-.24,3.18-.56,4.38-1.4,5.63Z"/><path class="cls-1" d="M219.41,147.77a6.2,6.2,0,0,1-4.55,1.95c-4.23,0-7.29-3.12-7.29-8s3.06-8,7.29-8a6.12,6.12,0,0,1,4.55,2v-1.6h4.47v15.29h-4.47Zm0-3.91v-4.29a3.81,3.81,0,0,0-3.44-2c-2.22,0-3.88,1.46-3.88,4.11s1.66,4.11,3.88,4.11A3.84,3.84,0,0,0,219.41,143.86Z"/><path class="cls-1" d="M225.1,149.26l6.1-7.88-5.54-7.24v-.08h5l4.12,5.63h1v-5.63h4.47v5.63h1l4.11-5.63h5v.08l-5.54,7.24,6.09,7.88v.09h-5.22l-4.46-6.13h-1v6.13h-4.47v-6.13h-1l-4.47,6.13H225.1Z"/><path class="cls-1" d="M262.15,147.77a6.2,6.2,0,0,1-4.55,1.95c-4.23,0-7.29-3.12-7.29-8s3.06-8,7.29-8a6.12,6.12,0,0,1,4.55,2v-1.6h4.47v15.29h-4.47Zm0-3.91v-4.29a3.81,3.81,0,0,0-3.44-2c-2.22,0-3.88,1.46-3.88,4.11s1.66,4.11,3.88,4.11A3.84,3.84,0,0,0,262.15,143.86Z"/><path class="cls-1" d="M269.77,134.06h5.78l4.17,10.32,4.17-10.32h5.78v15.29H285.2v-8.64l-3.47,8.64h-4l-3.47-8.64v8.64h-4.46Z"/><path class="cls-2" d="M86.24,174.09h7.42v12.8h14.28v-12.8h7.42v32.36h-7.42V193.32H93.66v13.13H86.24Z"/><path class="cls-2" d="M130.31,193.13l-12-18.89v-.15H127l7,11.85,7-11.85h8.71v.15l-12,18.89v13.32h-7.42Z"/><path class="cls-2" d="M152.29,192.51V174.09h7.43v18c0,4.85,1.71,8.23,6.66,8.23s6.66-3.38,6.66-8.23v-18h7.42v18.42c0,8.33-4.47,14.65-14.08,14.65S152.29,200.84,152.29,192.51Z"/><path class="cls-2" d="M186.36,174.09h6.48L209,194.17V174.09h7.42v32.36H210l-16.18-20.08v20.08h-7.43Z"/><path class="cls-2" d="M222.67,174.09h13.61c9.57,0,16.32,5.71,16.32,16.18s-6.75,16.18-16.32,16.18H222.67Zm7.43,6.48V200H236c5.57,0,9-3.43,9-9.71s-3.42-9.7-9-9.7Z"/><path class="cls-2" d="M265.07,174.09h8.85l12.33,32.36h-7.66l-2.29-6.19H262.69l-2.28,6.19h-7.66Zm0,19.75h8.85l-4.42-12Z"/><path class="cls-2" d="M289.06,174.09h7.42v32.36h-7.42Z"/><path class="cls-1" d="M125.44,234h7.33c3.12,0,4.81,1.49,4.81,3.91a3.16,3.16,0,0,1-1.87,2.92c1.81.49,3.1,1.55,3.1,3.65,0,2.53-1.78,4.14-5.23,4.14h-8.14Zm6.74,6.07c1.75,0,2.72-.67,2.72-2s-1-2-2.72-2h-4.11v3.91Zm1,6.39c1.93,0,3-.7,3-2.13s-1.05-2.1-3-2.1h-5.07v4.23Z"/><path class="cls-1" d="M147.94,238.71c0-5.78,4.17-10.27,9.94-10.27a9.71,9.71,0,0,1,8.82,5.13L164.59,235a7.17,7.17,0,0,0-6.68-4c-4.34,0-7.2,3.35-7.2,7.73s2.86,7.73,7.2,7.73a7.16,7.16,0,0,0,6.68-4l2.11,1.43a9.7,9.7,0,0,1-8.82,5.14C152.11,249,147.94,244.49,147.94,238.71Z"/><path class="cls-1" d="M180.67,246.56a6.26,6.26,0,0,1-5,2.39c-4.11,0-7.15-3.09-7.15-7.64s3-7.62,7.15-7.62a6.26,6.26,0,0,1,5,2.39V234h2.62v14.62h-2.62Zm0-2.69V238.8a5,5,0,0,0-9.45,2.51c0,3.26,2.18,5.25,4.93,5.25A4.9,4.9,0,0,0,180.67,243.87Z"/><path class="cls-1" d="M187.29,234h3.39l5.57,11.58L201.79,234h3.42v14.62h-2.63V238l-5.22,10.68h-2.25L189.92,238v10.68h-2.63Z"/><path class="cls-1" d="M220.46,246.56a6.24,6.24,0,0,1-5,2.39c-4.11,0-7.14-3.09-7.14-7.64s3-7.62,7.14-7.62a6.24,6.24,0,0,1,5,2.39V234h2.63v14.62h-2.63Zm0-2.69V238.8a5,5,0,0,0-9.45,2.51c0,3.26,2.19,5.25,4.93,5.25A4.9,4.9,0,0,0,220.46,243.87Z"/><path class="cls-1" d="M227.09,234h2.62v2.07a6.15,6.15,0,0,1,5-2.39c4.11,0,7.15,3.09,7.15,7.62s-3,7.64-7.15,7.64a6.22,6.22,0,0,1-5-2.36V254h-2.62Zm12,7.3a5,5,0,0,0-9.43-2.54v5.1a4.86,4.86,0,0,0,4.49,2.69C237,246.56,239.14,244.6,239.14,241.31Z"/><path class="cls-1" d="M244.06,241.33c0-4.52,3-7.64,7.21-7.64a6.83,6.83,0,0,1,7,7.18,12.64,12.64,0,0,1-.11,1.37H246.72a4.6,4.6,0,0,0,4.87,4.38,5.8,5.8,0,0,0,4.76-2.57l1.6,1.66a7.88,7.88,0,0,1-6.48,3.27C247,249,244.06,245.68,244.06,241.33Zm2.69-1.28h8.87a4.17,4.17,0,0,0-4.35-4.05A4.4,4.4,0,0,0,246.75,240.05Z"/><polygon class="cls-1" points="189.7 0 194.46 12.57 207.88 13.21 197.4 21.61 200.94 34.58 189.7 27.2 178.47 34.58 182.01 21.61 171.52 13.21 184.95 12.57 189.7 0"/><polygon class="cls-1" points="145.7 20.38 149.03 29.18 158.43 29.63 151.09 35.51 153.57 44.59 145.7 39.42 137.84 44.59 140.32 35.51 132.98 29.63 142.37 29.18 145.7 20.38"/><polygon class="cls-1" points="112.7 35.88 114.8 41.41 120.7 41.69 116.09 45.39 117.65 51.09 112.7 47.85 107.76 51.09 109.32 45.39 104.7 41.69 110.61 41.41 112.7 35.88"/><polygon class="cls-1" points="233.7 20.38 237.03 29.18 246.43 29.63 239.09 35.51 241.57 44.59 233.7 39.42 225.84 44.59 228.32 35.51 220.98 29.63 230.37 29.18 233.7 20.38"/><polygon class="cls-1" points="266.7 35.88 268.8 41.41 274.7 41.69 270.09 45.39 271.65 51.09 266.7 47.85 261.76 51.09 263.32 45.39 258.7 41.69 264.61 41.41 266.7 35.88"/><path class="cls-3" d="M33.34,98.26C3.5,171.3,18.82,240.7,86.46,282.57a283.31,283.31,0,0,0,28.21,15.13c26.12,12.35,52.54,21.49,72.25,32.63,10,5.6,18.15,11.5,25,20.45l1.41-1c-7-9.21-15.45-15.23-25.56-20.89-19.87-11.17-46.3-20.23-72.46-32.52a283.34,283.34,0,0,1-28.11-15C20.06,240,4.61,171.22,34.21,98.52Z"/><path class="cls-4" d="M138.92,278.74a122.12,122.12,0,0,1,11.35,8.17c14.63,12.23,15.09,20.61,13.35,27.86C153.53,307,140.16,303.87,138.92,278.74Z"/><path class="cls-5" d="M114.83,268.84c12.09,9,25.7,20.37,23,35.18-1.5-1-5.13-3.08-8.91-5.87s-7.68-6.29-9.74-10A36.91,36.91,0,0,1,114.83,268.84Z"/><path class="cls-6" d="M92.8,257.37c12.11,11.13,22,22.52,19.57,35.42C100.42,284.89,89.6,276.2,92.8,257.37Z"/><path class="cls-7" d="M73.6,243.51c11.07,13.94,17,25.49,14.42,36.2C75.12,270,68.08,258.59,73.6,243.51Z"/><path class="cls-8" d="M58,226.73c5.57,10.59,11.57,25.71,7.65,36.94C52,249.62,51.52,236.77,58,226.73Z"/><path class="cls-9" d="M46.67,206.76c3,11.29,5.66,26.72.12,37.09C38.66,231.37,36.13,217.16,46.67,206.76Z"/><path class="cls-10" d="M39.63,184c1.24,10.89.32,27.16-6.81,36.36C25.79,200.65,32.15,188.91,39.63,184Z"/><path class="cls-11" d="M37.17,159.71a70.92,70.92,0,0,1-1.31,9.81c-1.71,8.73-5,18.37-11.44,24.63C21.23,173.64,28.86,163.38,37.17,159.71Z"/><path class="cls-12" d="M39.15,134.77c-1.35,7.63-6.67,23.43-17.71,32C21.9,145.83,31,137,39.15,134.77Z"/><path class="cls-13" d="M45.09,109.85c-3,10.07-10.22,22.1-21.52,29.33C26.27,126.24,31.83,111.62,45.09,109.85Z"/><path class="cls-14" d="M54.46,85.55c-4,10-11.75,19.84-24.32,26.68C32.44,106,39,85.76,54.46,85.55Z"/><path class="cls-15" d="M56.67,55.8C53.39,66.21,44.78,89,35.47,94.65,34.79,84.51,40.23,69.49,56.67,55.8Z"/><path class="cls-16" d="M116,327.3a100.51,100.51,0,0,0,14.4,2.93c18.87,2.15,25.29-3.81,29.22-9.74-2.39-.4-16.57-4.77-25.39-2.66C128.08,319.3,122,322.62,116,327.3Z"/><path class="cls-17" d="M86.68,311.78a90.17,90.17,0,0,0,14.48,4.3,45.33,45.33,0,0,0,18.92.05c4-1,7.7-3.24,11.1-7.95-1.3-.22-5.39-1.48-10.24-2.53s-10.5-1.92-15-1.26C99.74,305.34,93.35,308,86.68,311.78Z"/><path class="cls-18" d="M58,292.2a82.15,82.15,0,0,0,14,6.61c17.92,6.23,26,1.53,31-4-2.62-.67-16.06-6.5-24.49-6.51C72.18,288.33,65.39,289.8,58,292.2Z"/><path class="cls-19" d="M32.36,266.77a72.43,72.43,0,0,0,12.4,9.68c15.88,9.64,25.2,6.93,31.41,2.17C64.65,273.62,60.65,265.57,32.36,266.77Z"/><path class="cls-20" d="M13.09,235.41c8.6,14.43,23.56,29.38,39.23,22.67C39.89,248.89,40.58,242.46,13.09,235.41Z"/><path class="cls-21" d="M2.51,200.9A71.88,71.88,0,0,0,8.1,214.71c8.54,15.77,17.61,18.72,25.68,17.85C24.48,221.09,27.44,215,2.51,200.9Z"/><path class="cls-22" d="M0,165.56c1.18,16.21,6.28,34.7,22.3,37.69C16.58,190.49,20.54,185.17,0,165.56Z"/><path class="cls-23" d="M4.7,131.21c-2.13,15.83-1.18,34,13.13,41C15.42,158.17,19.72,153.57,4.7,131.21Z"/><path class="cls-24" d="M15.13,98.93c-4.77,14.78-7.08,32,4.82,42C20.55,127.72,25.47,123.15,15.13,98.93Z"/><path class="cls-25" d="M30.07,69c-6.89,13.6-11.79,29.52-2.38,41.6C30.48,97.59,36.11,95.15,30.07,69Z"/><path class="cls-26" d="M347.42,98.86c32.54,79.07,14.08,153.05-80.28,198-9.36,4.45-18.57,8.41-27.32,12.12-33.22,14.09-56.54,23.61-70,41.42l1.41,1c14.05-18.62,42-29.37,69.24-41,8.75-3.74,18-7.72,27.35-12.21,93.61-44.86,114-118.94,80.43-199.74Z"/><path class="cls-27" d="M264.9,327.89a101,101,0,0,1-14.38,2.89,46.83,46.83,0,0,1-18.45-1.21c-3.9-1.16-7.45-3.61-10.74-8.53,1.32-.21,5.46-1.43,10.4-2.3s10.62-1.41,15-.36C252.82,319.86,258.86,323.19,264.9,327.89Z"/><path class="cls-28" d="M290.94,314c-10.21,3.64-21.79,6.37-32.56,3.8a19.29,19.29,0,0,1-11.46-7.89c1.76-.4,5.8-1.6,10.48-2.54C265.68,305.69,275.75,304.21,290.94,314Z"/><path class="cls-29" d="M316.61,297.1c-14,7.4-33.72,12.8-44.18,1,3-1,10.67-3.82,17.11-5C298.46,291.4,308.63,293.45,316.61,297.1Z"/><path class="cls-30" d="M340.4,275.93c-12,9.88-31.49,18.18-43.32,8.44C305.36,280.47,321,271.19,340.4,275.93Z"/><path class="cls-31" d="M360,249.89c-9.38,12.41-26.74,24.42-40.16,17.57C327,262.32,341.58,249.76,360,249.89Z"/><path class="cls-32" d="M373.1,220.17c-5.47,13.77-19.68,29.21-34,26.43C344.64,240.23,356.6,223.88,373.1,220.17Z"/><path class="cls-33" d="M379.33,189.17C377.7,200,368.72,220.22,353.17,222,357.09,214.07,364.8,195.75,379.33,189.17Z"/><path class="cls-34" d="M379.35,158c.69,13.77-5.23,31.52-18,36.83C363.25,187.48,366.84,166.67,379.35,158Z"/><path class="cls-35" d="M373.91,128c3.1,12.53,1,30.21-10,38.73C364.33,160.11,363.15,138.4,373.91,128Z"/><path class="cls-36" d="M364.07,99.76c4.78,10.73,6.09,27.58-2.78,39C360.05,130,355.46,110.79,364.07,99.76Z"/><path class="cls-37" d="M350.7,73.45c5.79,8.82,10,23.66,3.42,38.09C351.57,103.18,343.74,85.25,350.7,73.45Z"/><path class="cls-38" d="M324.29,56.75c16.14,10.52,23.67,30.69,22,38.08C333.54,84.28,326.7,62.43,324.29,56.75Z"/><path class="cls-39" d="M244.51,278.19c-13.82,9.31-28.39,20.2-24.63,36C230,306.32,243.35,303.31,244.51,278.19Z"/><path class="cls-40" d="M271,266.65c-13.93,11-25.43,20.89-22.57,35.59,1-.79,4.73-2.9,8.65-5.81C265.59,290.16,271.42,283.48,271,266.65Z"/><path class="cls-41" d="M294.72,253c-11.85,12.42-21.47,22.24-18.32,36.37,1-.81,4.44-3.08,8-6.18C292.15,276.57,297.34,269,294.72,253Z"/><path class="cls-42" d="M314.45,236.34c-10.14,16.25-15.71,25.21-11.7,37.58C309.36,266.8,322.8,258.46,314.45,236.34Z"/><path class="cls-43" d="M329.23,216c-6.52,19.39-8.58,27.91-3.23,38.35.32-.52,1.09-1.54,2.08-2.91a58.5,58.5,0,0,0,3.23-5.12C336.41,237.23,337.46,228.34,329.23,216Z"/><path class="cls-44" d="M338.65,192c-.88,10-3.44,24.89,3.17,35.08a35.33,35.33,0,0,0,2.24,3.08c.49-1.43,6.22-13.28,4.07-22.22C346.8,202.33,343.47,196.89,338.65,192Z"/><path class="cls-45" d="M342.54,165.73c1.64,17.18,2.94,28.09,12.92,36.33.06-.59.26-1.8.52-3.41.14-.81.24-1.72.35-2.7.05-.49.11-1,.16-1.52s.07-1.06.1-1.61c.24-4.38-.15-9.44-1.86-13.15C352.36,174.47,348.12,169.73,342.54,165.73Z"/><path class="cls-46" d="M340.9,138.46c1.09,4,4.66,19.26,11.39,27.24a20.88,20.88,0,0,0,2.07,2.17,31.7,31.7,0,0,0,5.78,4.13C359.09,162.88,361.4,149.2,340.9,138.46Z"/><path class="cls-47" d="M334.29,111.15c6.21,14.21,11.33,25.46,24.15,30.37C355.7,132.52,355.86,119.55,334.29,111.15Z"/><path class="cls-48" d="M323.47,84.66c8.23,14,14.77,23.79,27.74,27.1C347.09,102.63,345.14,90.69,323.47,84.66Z"/></svg>