<?xml version="1.0" encoding="UTF-8"?> <svg xmlns="http://www.w3.org/2000/svg" xmlns:xlink="http://www.w3.org/1999/xlink" width="42px" height="21px" viewBox="0 0 42 21"> 

<path d="M35.7466 3.26503C34.7219 2.72386 33.632 2.27717 32.543 1.86199C27.5784 0.204108 21.7808 -0.401968 16.2707 0.268056C11.1777 0.938079 6.2447 2.15023 2.37003 5.65688C0.51226 7.37966 -0.577678 9.9624 0.319574 12.4172C1.50441 15.4476 4.64383 17.4577 7.46212 18.604C15.7905 21.9541 27.0972 21.8262 35.1379 17.9989C37.893 16.6264 40.9672 14.2994 41.3516 11.0152C41.6727 7.44361 38.5333 4.79597 35.7466 3.26503ZM17.1689 4.69957C17.8735 3.36047 19.0909 1.76654 20.8202 1.73504C24.4399 1.70259 27.9312 2.24568 31.2297 3.16958C31.4224 3.26503 31.6783 3.32898 31.7742 3.51987C31.8701 3.74225 31.6774 3.8711 31.5499 4.0305C28.8275 6.13506 25.7197 7.31476 22.5496 8.36752C20.9477 8.7493 19.3143 9.45273 17.5198 9.06904C17.1038 8.97359 16.7194 8.68726 16.495 8.27207C16.0474 7.02842 16.6561 5.75328 17.1689 4.69957ZM6.11817 15.7034C5.70118 16.0852 5.28418 15.5746 4.90074 15.4152C2.97874 14.1715 1.24846 12.13 1.76131 9.73811C2.56174 6.61228 5.79704 4.92195 8.52043 3.77375C10.1213 3.16863 11.7873 2.69045 13.5493 2.40221C13.741 2.40221 13.9979 2.36975 14.0611 2.5616L13.9979 2.75344C10.5383 6.67719 8.26352 11.206 6.11817 15.7034ZM23.766 17.2019C22.9656 18.415 21.6849 19.4668 20.1147 19.3074C16.6235 19.2435 13.1649 18.7328 9.99284 17.7765C9.83275 17.7459 9.70525 17.6486 9.64102 17.5226C9.5768 17.3298 9.67267 17.1714 9.80112 17.0425C12.7162 14.7146 16.1432 13.6313 19.5712 12.4821C20.8519 12.1309 22.1968 11.7176 23.6385 11.9076C24.2156 11.9715 24.8243 12.3867 25.017 12.9279C25.3362 14.5543 24.4716 15.8943 23.766 17.2019ZM39.5907 11.3645C38.7902 14.6182 35.2348 16.3419 32.4155 17.4243C30.8779 17.9349 29.3403 18.4456 27.6426 18.604C27.5468 18.604 27.355 18.604 27.355 18.4456L27.3867 18.2556C29.7889 15.5746 31.5825 12.5766 33.1843 9.51572C33.9215 8.14417 34.5935 6.74113 35.2348 5.33905C35.3306 5.24265 35.4265 5.1787 35.5223 5.1472C36.0994 5.24265 36.5155 5.68838 36.9957 6.00812C38.6292 7.34721 40.1025 9.16544 39.5907 11.3645Z"  fill="#002c5f"/>

 </svg> 